<mxfile host="app.diagrams.net" modified="2024-03-27T08:12:44.241Z" agent="Mozilla/5.0 (Windows NT 10.0; Win64; x64) AppleWebKit/537.36 (KHTML, like Gecko) Chrome/122.0.0.0 Safari/537.36" etag="PLBmCsechcXMoxuPTm6V" version="24.2.0" type="github">
  <diagram name="第 1 页" id="83uqd1XD576B4KeyOUZV">
    <mxGraphModel dx="4508" dy="1822" grid="1" gridSize="10" guides="1" tooltips="1" connect="1" arrows="1" fold="1" page="1" pageScale="1" pageWidth="850" pageHeight="1100" math="0" shadow="0">
      <root>
        <mxCell id="0" />
        <mxCell id="1" parent="0" />
        <mxCell id="GgeAHl5cq-EndFfnK4Qn-97" value="Enroll / Change / Terminate EE on Carrier Website" style="swimlane;startSize=20;horizontal=1;containerType=tree;fontSize=21;labelBackgroundColor=#0008e6;fontColor=#ffffff;" parent="1" vertex="1">
          <mxGeometry x="-405" y="4430" width="1835" height="1260" as="geometry" />
        </mxCell>
        <mxCell id="GgeAHl5cq-EndFfnK4Qn-290" style="edgeStyle=orthogonalEdgeStyle;rounded=0;orthogonalLoop=1;jettySize=auto;html=1;entryX=0.5;entryY=0;entryDx=0;entryDy=0;" parent="GgeAHl5cq-EndFfnK4Qn-97" source="GgeAHl5cq-EndFfnK4Qn-261" target="GgeAHl5cq-EndFfnK4Qn-272" edge="1">
          <mxGeometry relative="1" as="geometry" />
        </mxCell>
        <mxCell id="GgeAHl5cq-EndFfnK4Qn-261" value="" style="rounded=0;whiteSpace=wrap;html=1;fillColor=#fff2cc;strokeColor=#d6b656;" parent="GgeAHl5cq-EndFfnK4Qn-97" vertex="1">
          <mxGeometry x="697.5" y="170" width="435" height="220" as="geometry" />
        </mxCell>
        <mxCell id="GgeAHl5cq-EndFfnK4Qn-269" style="edgeStyle=orthogonalEdgeStyle;rounded=0;orthogonalLoop=1;jettySize=auto;html=1;entryX=0.5;entryY=0;entryDx=0;entryDy=0;" parent="GgeAHl5cq-EndFfnK4Qn-97" source="GgeAHl5cq-EndFfnK4Qn-258" target="GgeAHl5cq-EndFfnK4Qn-261" edge="1">
          <mxGeometry relative="1" as="geometry" />
        </mxCell>
        <mxCell id="GgeAHl5cq-EndFfnK4Qn-258" value="Generate Data Capture Template for All EN EE" style="rounded=0;whiteSpace=wrap;html=1;fillColor=#dae8fc;strokeColor=#6c8ebf;" parent="GgeAHl5cq-EndFfnK4Qn-97" vertex="1">
          <mxGeometry x="710" y="70" width="410" height="60" as="geometry" />
        </mxCell>
        <mxCell id="GgeAHl5cq-EndFfnK4Qn-262" value="&amp;nbsp;Generate data capture template for each EE from EN" style="rounded=1;whiteSpace=wrap;html=1;" parent="GgeAHl5cq-EndFfnK4Qn-97" vertex="1">
          <mxGeometry x="777.5" y="180" width="260" height="40" as="geometry" />
        </mxCell>
        <mxCell id="GgeAHl5cq-EndFfnK4Qn-263" value="" style="edgeStyle=orthogonalEdgeStyle;rounded=0;orthogonalLoop=1;jettySize=auto;html=1;" parent="GgeAHl5cq-EndFfnK4Qn-97" source="GgeAHl5cq-EndFfnK4Qn-262" target="GgeAHl5cq-EndFfnK4Qn-264" edge="1">
          <mxGeometry relative="1" as="geometry" />
        </mxCell>
        <mxCell id="GgeAHl5cq-EndFfnK4Qn-264" value="Fill in data input per EN" style="rounded=1;whiteSpace=wrap;html=1;" parent="GgeAHl5cq-EndFfnK4Qn-97" vertex="1">
          <mxGeometry x="777.5" y="240" width="260" height="40" as="geometry" />
        </mxCell>
        <mxCell id="GgeAHl5cq-EndFfnK4Qn-265" value="" style="edgeStyle=orthogonalEdgeStyle;rounded=0;orthogonalLoop=1;jettySize=auto;html=1;" parent="GgeAHl5cq-EndFfnK4Qn-97" source="GgeAHl5cq-EndFfnK4Qn-264" target="GgeAHl5cq-EndFfnK4Qn-266" edge="1">
          <mxGeometry relative="1" as="geometry">
            <mxPoint x="487.5" y="4750" as="sourcePoint" />
          </mxGeometry>
        </mxCell>
        <mxCell id="GgeAHl5cq-EndFfnK4Qn-266" value="If any data missing / cannot fill in, fill in issues to Automation Notes to Processor column" style="rounded=1;whiteSpace=wrap;html=1;fillColor=#f8cecc;strokeColor=#b85450;" parent="GgeAHl5cq-EndFfnK4Qn-97" vertex="1">
          <mxGeometry x="777.5" y="300" width="260" height="60" as="geometry" />
        </mxCell>
        <mxCell id="GgeAHl5cq-EndFfnK4Qn-343" style="edgeStyle=orthogonalEdgeStyle;rounded=0;orthogonalLoop=1;jettySize=auto;html=1;entryX=0.5;entryY=0;entryDx=0;entryDy=0;" parent="GgeAHl5cq-EndFfnK4Qn-97" source="GgeAHl5cq-EndFfnK4Qn-270" target="GgeAHl5cq-EndFfnK4Qn-330" edge="1">
          <mxGeometry relative="1" as="geometry" />
        </mxCell>
        <mxCell id="GgeAHl5cq-EndFfnK4Qn-270" value="" style="rounded=0;whiteSpace=wrap;html=1;fillColor=#fff2cc;strokeColor=#d6b656;" parent="GgeAHl5cq-EndFfnK4Qn-97" vertex="1">
          <mxGeometry x="603.75" y="550" width="622.5" height="260" as="geometry" />
        </mxCell>
        <mxCell id="GgeAHl5cq-EndFfnK4Qn-271" style="edgeStyle=orthogonalEdgeStyle;rounded=0;orthogonalLoop=1;jettySize=auto;html=1;entryX=0.5;entryY=0;entryDx=0;entryDy=0;" parent="GgeAHl5cq-EndFfnK4Qn-97" source="GgeAHl5cq-EndFfnK4Qn-272" target="GgeAHl5cq-EndFfnK4Qn-270" edge="1">
          <mxGeometry relative="1" as="geometry" />
        </mxCell>
        <mxCell id="GgeAHl5cq-EndFfnK4Qn-272" value="Trigger Automation to Process on Carrier Website" style="rounded=0;whiteSpace=wrap;html=1;fillColor=#dae8fc;strokeColor=#6c8ebf;" parent="GgeAHl5cq-EndFfnK4Qn-97" vertex="1">
          <mxGeometry x="710" y="450" width="410" height="60" as="geometry" />
        </mxCell>
        <mxCell id="GgeAHl5cq-EndFfnK4Qn-273" value="Processor mark &quot;Yes&quot; under Process Method Approved? column" style="rounded=1;whiteSpace=wrap;html=1;" parent="GgeAHl5cq-EndFfnK4Qn-97" vertex="1">
          <mxGeometry x="810" y="570" width="260" height="40" as="geometry" />
        </mxCell>
        <mxCell id="GgeAHl5cq-EndFfnK4Qn-274" value="" style="edgeStyle=orthogonalEdgeStyle;rounded=0;orthogonalLoop=1;jettySize=auto;html=1;" parent="GgeAHl5cq-EndFfnK4Qn-97" source="GgeAHl5cq-EndFfnK4Qn-273" target="GgeAHl5cq-EndFfnK4Qn-275" edge="1">
          <mxGeometry relative="1" as="geometry" />
        </mxCell>
        <mxCell id="GgeAHl5cq-EndFfnK4Qn-287" style="edgeStyle=orthogonalEdgeStyle;rounded=0;orthogonalLoop=1;jettySize=auto;html=1;" parent="GgeAHl5cq-EndFfnK4Qn-97" source="GgeAHl5cq-EndFfnK4Qn-275" target="GgeAHl5cq-EndFfnK4Qn-299" edge="1">
          <mxGeometry relative="1" as="geometry" />
        </mxCell>
        <mxCell id="GgeAHl5cq-EndFfnK4Qn-275" value="Processor send request items to automation by batch" style="rounded=1;whiteSpace=wrap;html=1;" parent="GgeAHl5cq-EndFfnK4Qn-97" vertex="1">
          <mxGeometry x="810" y="630" width="260" height="40" as="geometry" />
        </mxCell>
        <mxCell id="GgeAHl5cq-EndFfnK4Qn-297" value="Carrier Automated, trigger automation to process on corresponding carrier website per Data Capture and Work Log;&amp;nbsp;" style="rounded=1;whiteSpace=wrap;html=1;" parent="GgeAHl5cq-EndFfnK4Qn-97" vertex="1">
          <mxGeometry x="642.5" y="710" width="180" height="60" as="geometry" />
        </mxCell>
        <mxCell id="GgeAHl5cq-EndFfnK4Qn-300" style="edgeStyle=orthogonalEdgeStyle;rounded=0;orthogonalLoop=1;jettySize=auto;html=1;" parent="GgeAHl5cq-EndFfnK4Qn-97" source="GgeAHl5cq-EndFfnK4Qn-299" target="GgeAHl5cq-EndFfnK4Qn-297" edge="1">
          <mxGeometry relative="1" as="geometry" />
        </mxCell>
        <mxCell id="GgeAHl5cq-EndFfnK4Qn-301" value="Yes" style="edgeLabel;html=1;align=center;verticalAlign=middle;resizable=0;points=[];" parent="GgeAHl5cq-EndFfnK4Qn-300" vertex="1" connectable="0">
          <mxGeometry x="-0.3337" y="-1" relative="1" as="geometry">
            <mxPoint as="offset" />
          </mxGeometry>
        </mxCell>
        <mxCell id="GgeAHl5cq-EndFfnK4Qn-307" style="edgeStyle=orthogonalEdgeStyle;rounded=0;orthogonalLoop=1;jettySize=auto;html=1;entryX=0;entryY=0.5;entryDx=0;entryDy=0;" parent="GgeAHl5cq-EndFfnK4Qn-97" source="GgeAHl5cq-EndFfnK4Qn-299" target="GgeAHl5cq-EndFfnK4Qn-304" edge="1">
          <mxGeometry relative="1" as="geometry" />
        </mxCell>
        <mxCell id="GgeAHl5cq-EndFfnK4Qn-308" value="No" style="edgeLabel;html=1;align=center;verticalAlign=middle;resizable=0;points=[];" parent="GgeAHl5cq-EndFfnK4Qn-307" vertex="1" connectable="0">
          <mxGeometry x="-0.1431" y="2" relative="1" as="geometry">
            <mxPoint x="-9" y="-2" as="offset" />
          </mxGeometry>
        </mxCell>
        <mxCell id="GgeAHl5cq-EndFfnK4Qn-299" value="If Process Method is Online" style="rhombus;whiteSpace=wrap;html=1;" parent="GgeAHl5cq-EndFfnK4Qn-97" vertex="1">
          <mxGeometry x="860.63" y="700" width="158.75" height="80" as="geometry" />
        </mxCell>
        <mxCell id="GgeAHl5cq-EndFfnK4Qn-304" value="skip" style="rounded=1;whiteSpace=wrap;html=1;" parent="GgeAHl5cq-EndFfnK4Qn-97" vertex="1">
          <mxGeometry x="1052.5" y="710" width="120" height="60" as="geometry" />
        </mxCell>
        <mxCell id="GgeAHl5cq-EndFfnK4Qn-328" value="" style="rounded=0;whiteSpace=wrap;html=1;fillColor=#fff2cc;strokeColor=#d6b656;" parent="GgeAHl5cq-EndFfnK4Qn-97" vertex="1">
          <mxGeometry x="360" y="1000" width="1110" height="210" as="geometry" />
        </mxCell>
        <mxCell id="GgeAHl5cq-EndFfnK4Qn-358" style="edgeStyle=orthogonalEdgeStyle;rounded=0;orthogonalLoop=1;jettySize=auto;html=1;entryX=0.5;entryY=0;entryDx=0;entryDy=0;" parent="GgeAHl5cq-EndFfnK4Qn-97" source="GgeAHl5cq-EndFfnK4Qn-330" target="GgeAHl5cq-EndFfnK4Qn-328" edge="1">
          <mxGeometry relative="1" as="geometry" />
        </mxCell>
        <mxCell id="GgeAHl5cq-EndFfnK4Qn-330" value="&lt;div&gt;Return Processing Status to Work Log&lt;/div&gt;" style="rounded=0;whiteSpace=wrap;html=1;fillColor=#dae8fc;strokeColor=#6c8ebf;" parent="GgeAHl5cq-EndFfnK4Qn-97" vertex="1">
          <mxGeometry x="710" y="880" width="410" height="60" as="geometry" />
        </mxCell>
        <mxCell id="GgeAHl5cq-EndFfnK4Qn-350" style="edgeStyle=orthogonalEdgeStyle;rounded=0;orthogonalLoop=1;jettySize=auto;html=1;" parent="GgeAHl5cq-EndFfnK4Qn-97" source="GgeAHl5cq-EndFfnK4Qn-331" target="GgeAHl5cq-EndFfnK4Qn-347" edge="1">
          <mxGeometry relative="1" as="geometry" />
        </mxCell>
        <mxCell id="GgeAHl5cq-EndFfnK4Qn-331" value="If automation stopped in the mid of process on carrier website, update below columns in Work Log for corresponding request item:" style="rounded=1;whiteSpace=wrap;html=1;" parent="GgeAHl5cq-EndFfnK4Qn-97" vertex="1">
          <mxGeometry x="395" y="1010" width="330" height="60" as="geometry" />
        </mxCell>
        <mxCell id="GgeAHl5cq-EndFfnK4Qn-353" style="edgeStyle=orthogonalEdgeStyle;rounded=0;orthogonalLoop=1;jettySize=auto;html=1;entryX=0.5;entryY=0;entryDx=0;entryDy=0;" parent="GgeAHl5cq-EndFfnK4Qn-97" source="GgeAHl5cq-EndFfnK4Qn-344" target="GgeAHl5cq-EndFfnK4Qn-351" edge="1">
          <mxGeometry relative="1" as="geometry" />
        </mxCell>
        <mxCell id="GgeAHl5cq-EndFfnK4Qn-344" value="If automation finished all changes on carrier website, update below columns in Work Log for corresponding request item" style="rounded=1;whiteSpace=wrap;html=1;" parent="GgeAHl5cq-EndFfnK4Qn-97" vertex="1">
          <mxGeometry x="755" y="1010" width="330" height="60" as="geometry" />
        </mxCell>
        <mxCell id="GgeAHl5cq-EndFfnK4Qn-347" value="&lt;div&gt;&lt;b&gt;Status: &lt;/b&gt;select &quot;Pending for question&quot;&lt;/div&gt;&lt;div&gt;&lt;b&gt;Issue Found on Carrier Website&lt;/b&gt;: fill in corresponding issue per requirement in Data Capture&lt;/div&gt;&lt;div&gt;&lt;br&gt;&lt;/div&gt;" style="shape=hexagon;perimeter=hexagonPerimeter2;whiteSpace=wrap;html=1;fixedSize=1;" parent="GgeAHl5cq-EndFfnK4Qn-97" vertex="1">
          <mxGeometry x="402.5" y="1120" width="315" height="80" as="geometry" />
        </mxCell>
        <mxCell id="GgeAHl5cq-EndFfnK4Qn-351" value="&lt;div&gt;&lt;div&gt;&lt;b&gt;Status:&lt;/b&gt; &quot;Completed&quot;&lt;/div&gt;&lt;div&gt;&lt;b&gt;Issue Found on Carrier Website:&lt;/b&gt; &quot;N/A&quot;&lt;/div&gt;&lt;div&gt;&lt;b&gt;Request Completed via Email / Online?&lt;/b&gt;: &quot;Yes&quot;&lt;/div&gt;&lt;/div&gt;" style="shape=hexagon;perimeter=hexagonPerimeter2;whiteSpace=wrap;html=1;fixedSize=1;" parent="GgeAHl5cq-EndFfnK4Qn-97" vertex="1">
          <mxGeometry x="762.5" y="1120" width="315" height="80" as="geometry" />
        </mxCell>
        <mxCell id="GgeAHl5cq-EndFfnK4Qn-357" style="edgeStyle=orthogonalEdgeStyle;rounded=0;orthogonalLoop=1;jettySize=auto;html=1;" parent="GgeAHl5cq-EndFfnK4Qn-97" source="GgeAHl5cq-EndFfnK4Qn-354" target="GgeAHl5cq-EndFfnK4Qn-355" edge="1">
          <mxGeometry relative="1" as="geometry" />
        </mxCell>
        <mxCell id="GgeAHl5cq-EndFfnK4Qn-354" value="If any issues found in the mid of process on carrier website, but automation can finish the rest changes, update below columns in Work Log for corresponding request item:" style="rounded=1;whiteSpace=wrap;html=1;" parent="GgeAHl5cq-EndFfnK4Qn-97" vertex="1">
          <mxGeometry x="1115" y="1010" width="350" height="60" as="geometry" />
        </mxCell>
        <mxCell id="GgeAHl5cq-EndFfnK4Qn-355" value="&lt;div&gt;&lt;b&gt;Status:&amp;nbsp;&lt;/b&gt;&lt;span style=&quot;background-color: initial;&quot;&gt;select &quot;Pending for question&quot;&lt;/span&gt;&lt;/div&gt;&lt;div&gt;&lt;b&gt;Automation Notes to Processor: &lt;/b&gt;fill in corresponding notes per requirement in Data Capture&lt;br&gt;&lt;/div&gt;&lt;div&gt;&lt;b&gt;Request Completed via Email / Online?&lt;/b&gt;: &quot;Yes&quot;&lt;/div&gt;" style="shape=hexagon;perimeter=hexagonPerimeter2;whiteSpace=wrap;html=1;fixedSize=1;" parent="GgeAHl5cq-EndFfnK4Qn-97" vertex="1">
          <mxGeometry x="1132.5" y="1120" width="315" height="80" as="geometry" />
        </mxCell>
        <mxCell id="GgeAHl5cq-EndFfnK4Qn-33" value="" style="edgeStyle=orthogonalEdgeStyle;rounded=0;orthogonalLoop=1;jettySize=auto;html=1;" parent="1" source="GgeAHl5cq-EndFfnK4Qn-8" target="GgeAHl5cq-EndFfnK4Qn-31" edge="1">
          <mxGeometry relative="1" as="geometry" />
        </mxCell>
        <mxCell id="GgeAHl5cq-EndFfnK4Qn-8" value="" style="rounded=0;whiteSpace=wrap;html=1;fillColor=#fff2cc;strokeColor=#d6b656;" parent="1" vertex="1">
          <mxGeometry x="106.25" y="220" width="853.75" height="360" as="geometry" />
        </mxCell>
        <mxCell id="GgeAHl5cq-EndFfnK4Qn-24" value="" style="rounded=0;whiteSpace=wrap;html=1;fillColor=#ffe6cc;strokeColor=#d79b00;" parent="1" vertex="1">
          <mxGeometry x="353.13" y="225" width="356.87" height="345" as="geometry" />
        </mxCell>
        <mxCell id="GgeAHl5cq-EndFfnK4Qn-255" style="edgeStyle=orthogonalEdgeStyle;rounded=0;orthogonalLoop=1;jettySize=auto;html=1;entryX=0.5;entryY=0;entryDx=0;entryDy=0;" parent="1" source="GgeAHl5cq-EndFfnK4Qn-1" target="GgeAHl5cq-EndFfnK4Qn-253" edge="1">
          <mxGeometry relative="1" as="geometry" />
        </mxCell>
        <mxCell id="GgeAHl5cq-EndFfnK4Qn-1" value="&lt;p style=&quot;line-height: 90%; margin-top: 0pt; margin-bottom: 5.04pt; margin-left: 0in; text-indent: 0in;&quot;&gt;&lt;span style=&quot;font-size: 12pt; font-family: Calibri;&quot;&gt;Log&lt;/span&gt;&lt;span style=&quot;font-size: 12pt; font-family: Calibri; vertical-align: baseline;&quot;&gt;on Server&lt;/span&gt;&lt;/p&gt;" style="rounded=1;whiteSpace=wrap;html=1;fontStyle=0" parent="1" vertex="1">
          <mxGeometry x="450" y="10" width="120" height="50" as="geometry" />
        </mxCell>
        <mxCell id="GgeAHl5cq-EndFfnK4Qn-9" value="" style="edgeStyle=orthogonalEdgeStyle;rounded=0;orthogonalLoop=1;jettySize=auto;html=1;" parent="1" source="GgeAHl5cq-EndFfnK4Qn-3" target="GgeAHl5cq-EndFfnK4Qn-8" edge="1">
          <mxGeometry relative="1" as="geometry" />
        </mxCell>
        <mxCell id="GgeAHl5cq-EndFfnK4Qn-12" value="" style="edgeStyle=orthogonalEdgeStyle;rounded=0;orthogonalLoop=1;jettySize=auto;html=1;" parent="1" source="GgeAHl5cq-EndFfnK4Qn-10" target="GgeAHl5cq-EndFfnK4Qn-11" edge="1">
          <mxGeometry relative="1" as="geometry" />
        </mxCell>
        <mxCell id="GgeAHl5cq-EndFfnK4Qn-10" value="&lt;p style=&quot;language:en-US;margin-top:0pt;margin-bottom:0pt;margin-left:0in;&lt;br/&gt;text-indent:0in;text-align:left&quot;&gt;&lt;span style=&quot;font-size: 9pt; font-family: Calibri;&quot;&gt;Log on EN on a &lt;/span&gt;&lt;span style=&quot;font-size: 9pt; font-family: Calibri; font-weight: bold;&quot;&gt;daily&lt;/span&gt;&lt;span style=&quot;font-size: 9pt; font-family: Calibri;&quot;&gt; basis&lt;/span&gt;&lt;/p&gt;" style="rounded=1;whiteSpace=wrap;html=1;" parent="1" vertex="1">
          <mxGeometry x="140" y="230" width="140" height="30" as="geometry" />
        </mxCell>
        <mxCell id="GgeAHl5cq-EndFfnK4Qn-26" style="edgeStyle=orthogonalEdgeStyle;rounded=0;orthogonalLoop=1;jettySize=auto;html=1;" parent="1" source="GgeAHl5cq-EndFfnK4Qn-11" target="GgeAHl5cq-EndFfnK4Qn-24" edge="1">
          <mxGeometry relative="1" as="geometry" />
        </mxCell>
        <mxCell id="GgeAHl5cq-EndFfnK4Qn-11" value="&lt;p style=&quot;margin-top: 0pt; margin-bottom: 0pt; margin-left: 0in;&quot;&gt;&lt;span style=&quot;font-size: 9pt; font-family: Calibri;&quot;&gt;Go to Broker&lt;/span&gt;&lt;span style=&quot;font-size: 9pt; font-family: Calibri; vertical-align: baseline;&quot;&gt;&lt;br&gt;version Wall page,&amp;nbsp;&lt;/span&gt;&lt;span style=&quot;font-family: Calibri; font-size: 9pt; text-indent: 0in; background-color: initial;&quot;&gt;Loop&lt;br&gt;each card to retrieve info and update below columns in Work Log for each card:&lt;/span&gt;&lt;/p&gt;" style="whiteSpace=wrap;html=1;rounded=1;align=center;" parent="1" vertex="1">
          <mxGeometry x="130" y="417.5" width="160" height="85" as="geometry" />
        </mxCell>
        <mxCell id="GgeAHl5cq-EndFfnK4Qn-15" value="&lt;span style=&quot;font-size: 9pt; font-family: Calibri; font-weight: bold; vertical-align: baseline;&quot;&gt;Group&lt;/span&gt;&lt;span style=&quot;font-size: 9pt; font-family: Calibri; vertical-align: baseline;&quot;&gt;: ClientName&lt;/span&gt;&lt;div&gt;&lt;span style=&quot;vertical-align: baseline;&quot;&gt;&lt;font face=&quot;Calibri&quot;&gt;&lt;div style=&quot;&quot;&gt;&lt;b&gt;EE Name&lt;/b&gt;: EmployeeName&lt;/div&gt;&lt;div style=&quot;&quot;&gt;&lt;b&gt;Employee ID in EN&lt;/b&gt;: EmpId&lt;/div&gt;&lt;div style=&quot;&quot;&gt;&lt;b&gt;Where the Request Items Come From?&lt;/b&gt;: &quot;EN - Wall Notification&quot;&lt;/div&gt;&lt;div style=&quot;&quot;&gt;&lt;b&gt;EN Request Items Can be Located in Both EN - Wall Notification &amp;amp; Email - EN Notifications?&lt;/b&gt;: &quot;No&quot;&lt;/div&gt;&lt;div style=&quot;&quot;&gt;&lt;b&gt;Received Date &amp;amp; Time (CST): &lt;/b&gt;CreatedDate&lt;/div&gt;&lt;div style=&quot;&quot;&gt;&lt;b&gt;Event Name for Request Items Received from EN - Wall Notification &amp;amp; Email - EN Notifications:&lt;/b&gt; Reason&lt;/div&gt;&lt;div style=&quot;&quot;&gt;&lt;b&gt;Change Date &amp;amp; Time:&lt;/b&gt; CreatedDate&lt;/div&gt;&lt;/font&gt;&lt;/span&gt;&lt;/div&gt;" style="shape=hexagon;perimeter=hexagonPerimeter2;whiteSpace=wrap;html=1;fixedSize=1;rounded=1;verticalAlign=top;align=center;" parent="1" vertex="1">
          <mxGeometry x="383.13" y="380" width="300" height="180" as="geometry" />
        </mxCell>
        <mxCell id="GgeAHl5cq-EndFfnK4Qn-22" value="" style="edgeStyle=orthogonalEdgeStyle;rounded=0;orthogonalLoop=1;jettySize=auto;html=1;" parent="1" source="GgeAHl5cq-EndFfnK4Qn-17" target="GgeAHl5cq-EndFfnK4Qn-21" edge="1">
          <mxGeometry relative="1" as="geometry" />
        </mxCell>
        <mxCell id="GgeAHl5cq-EndFfnK4Qn-17" value="get group name maping list from config&amp;nbsp;&lt;div&gt;&lt;br&gt;&lt;/div&gt;" style="whiteSpace=wrap;html=1;verticalAlign=top;rounded=1;" parent="1" vertex="1">
          <mxGeometry x="423.13" y="235" width="220" height="30" as="geometry" />
        </mxCell>
        <mxCell id="GgeAHl5cq-EndFfnK4Qn-23" value="" style="edgeStyle=orthogonalEdgeStyle;rounded=0;orthogonalLoop=1;jettySize=auto;html=1;" parent="1" source="GgeAHl5cq-EndFfnK4Qn-21" target="GgeAHl5cq-EndFfnK4Qn-15" edge="1">
          <mxGeometry relative="1" as="geometry" />
        </mxCell>
        <mxCell id="GgeAHl5cq-EndFfnK4Qn-21" value="If group name cannot be located in Config:&lt;div&gt;Group:leave blank&lt;div&gt;&lt;u&gt;fill in &quot;Group name (xxx) in EN cannot be located from Group List in Work Log&quot; under Automation Notes&lt;/u&gt; to Processor column&lt;br&gt;&lt;div&gt;&lt;br&gt;&lt;/div&gt;&lt;/div&gt;&lt;/div&gt;" style="whiteSpace=wrap;html=1;verticalAlign=top;rounded=1;align=center;" parent="1" vertex="1">
          <mxGeometry x="368.13" y="280" width="330" height="80" as="geometry" />
        </mxCell>
        <mxCell id="GgeAHl5cq-EndFfnK4Qn-35" value="" style="edgeStyle=orthogonalEdgeStyle;rounded=0;orthogonalLoop=1;jettySize=auto;html=1;" parent="1" source="GgeAHl5cq-EndFfnK4Qn-31" target="GgeAHl5cq-EndFfnK4Qn-34" edge="1">
          <mxGeometry relative="1" as="geometry" />
        </mxCell>
        <mxCell id="GgeAHl5cq-EndFfnK4Qn-31" value="&lt;div&gt;Retrieve Request Received via Emails&lt;br&gt;&lt;/div&gt;" style="whiteSpace=wrap;html=1;verticalAlign=middle;rounded=1;fillColor=#dae8fc;strokeColor=#6c8ebf;" parent="1" vertex="1">
          <mxGeometry x="423.13" y="610" width="220" height="50" as="geometry" />
        </mxCell>
        <mxCell id="GgeAHl5cq-EndFfnK4Qn-34" value="" style="rounded=0;whiteSpace=wrap;html=1;fillColor=#fff2cc;strokeColor=#d6b656;" parent="1" vertex="1">
          <mxGeometry x="-200" y="680" width="1578.13" height="1030" as="geometry" />
        </mxCell>
        <mxCell id="GgeAHl5cq-EndFfnK4Qn-38" value="" style="edgeStyle=orthogonalEdgeStyle;rounded=0;orthogonalLoop=1;jettySize=auto;html=1;" parent="1" source="GgeAHl5cq-EndFfnK4Qn-36" target="GgeAHl5cq-EndFfnK4Qn-37" edge="1">
          <mxGeometry relative="1" as="geometry" />
        </mxCell>
        <mxCell id="GgeAHl5cq-EndFfnK4Qn-36" value="Log on Outlook" style="rounded=1;whiteSpace=wrap;html=1;" parent="1" vertex="1">
          <mxGeometry x="160" y="755" width="120" height="30" as="geometry" />
        </mxCell>
        <mxCell id="GgeAHl5cq-EndFfnK4Qn-40" value="" style="edgeStyle=orthogonalEdgeStyle;rounded=0;orthogonalLoop=1;jettySize=auto;html=1;" parent="1" source="GgeAHl5cq-EndFfnK4Qn-37" target="GgeAHl5cq-EndFfnK4Qn-39" edge="1">
          <mxGeometry relative="1" as="geometry" />
        </mxCell>
        <mxCell id="GgeAHl5cq-EndFfnK4Qn-37" value="get outlook mailbox folder from config:&amp;nbsp;CBIZ CHI Benefits public mailbox" style="whiteSpace=wrap;html=1;rounded=1;" parent="1" vertex="1">
          <mxGeometry x="330" y="740" width="150" height="60" as="geometry" />
        </mxCell>
        <mxCell id="GgeAHl5cq-EndFfnK4Qn-51" value="" style="edgeStyle=orthogonalEdgeStyle;rounded=0;orthogonalLoop=1;jettySize=auto;html=1;" parent="1" source="GgeAHl5cq-EndFfnK4Qn-39" target="GgeAHl5cq-EndFfnK4Qn-50" edge="1">
          <mxGeometry relative="1" as="geometry" />
        </mxCell>
        <mxCell id="GgeAHl5cq-EndFfnK4Qn-39" value="loop to get email from target folder" style="whiteSpace=wrap;html=1;rounded=1;" parent="1" vertex="1">
          <mxGeometry x="518.13" y="740" width="165" height="60" as="geometry" />
        </mxCell>
        <mxCell id="GgeAHl5cq-EndFfnK4Qn-44" style="edgeStyle=orthogonalEdgeStyle;rounded=0;orthogonalLoop=1;jettySize=auto;html=1;entryX=0.5;entryY=0;entryDx=0;entryDy=0;" parent="1" source="GgeAHl5cq-EndFfnK4Qn-41" target="GgeAHl5cq-EndFfnK4Qn-39" edge="1">
          <mxGeometry relative="1" as="geometry">
            <Array as="points">
              <mxPoint x="800" y="700" />
              <mxPoint x="601" y="700" />
            </Array>
          </mxGeometry>
        </mxCell>
        <mxCell id="GgeAHl5cq-EndFfnK4Qn-45" value="Loop every email" style="edgeLabel;html=1;align=center;verticalAlign=middle;resizable=0;points=[];" parent="GgeAHl5cq-EndFfnK4Qn-44" vertex="1" connectable="0">
          <mxGeometry x="0.1353" y="2" relative="1" as="geometry">
            <mxPoint as="offset" />
          </mxGeometry>
        </mxCell>
        <mxCell id="GgeAHl5cq-EndFfnK4Qn-41" value="save to worklog&lt;div&gt;move email to done folder?&lt;/div&gt;" style="whiteSpace=wrap;html=1;rounded=1;" parent="1" vertex="1">
          <mxGeometry x="740" y="860" width="120" height="60" as="geometry" />
        </mxCell>
        <mxCell id="GgeAHl5cq-EndFfnK4Qn-46" value="&lt;p style=&quot;language:en-US;margin-top:0pt;margin-bottom:0pt;margin-left:0in;&lt;br/&gt;text-indent:0in;text-align:left&quot;&gt;&lt;span style=&quot;font-size: 9pt; font-family: Calibri; vertical-align: baseline;&quot;&gt;. &lt;/span&gt;&lt;span style=&quot;font-size: 9pt; font-family: Calibri; color: red; vertical-align: baseline;&quot;&gt;How to identify which email is newly received?&amp;nbsp; Based on category?&amp;nbsp;&amp;nbsp;&lt;/span&gt;&lt;/p&gt;&lt;p style=&quot;language:en-US;margin-top:0pt;margin-bottom:0pt;margin-left:0in;&lt;br/&gt;text-indent:0in;text-align:left&quot;&gt;&lt;span style=&quot;font-size: 9pt; font-family: Calibri; color: red; vertical-align: baseline;&quot;&gt;e.g., mark email extracted by automation in a color?&amp;nbsp;&lt;/span&gt;&lt;/p&gt;&lt;p style=&quot;language:en-US;margin-top:0pt;margin-bottom:0pt;margin-left:0in;&lt;br/&gt;text-indent:0in;text-align:left&quot;&gt;&lt;span style=&quot;font-size: 9pt; font-family: Calibri; color: red; vertical-align: baseline;&quot;&gt;Or rely on Received Date &amp;amp; Time column, treat email received after&lt;br&gt;the latest time in Work Log is newly received?&lt;/span&gt;&lt;/p&gt;&lt;p style=&quot;language:en-US;margin-top:0pt;margin-bottom:0pt;margin-left:0in;&lt;br/&gt;text-indent:0in;text-align:left&quot;&gt;&lt;span style=&quot;font-size: 9pt; font-family: Calibri; color: red; vertical-align: baseline;&quot;&gt;&lt;br&gt;&lt;/span&gt;&lt;/p&gt;&lt;p style=&quot;language:en-US;margin-top:0pt;margin-bottom:0pt;margin-left:0in;&lt;br/&gt;text-indent:0in;text-align:left&quot;&gt;&lt;span style=&quot;font-size: 9pt; font-family: Calibri; vertical-align: baseline;&quot;&gt;mark email&#39;s categray after automation touched&lt;/span&gt;&lt;/p&gt;" style="ellipse;whiteSpace=wrap;html=1;fillColor=#f8cecc;strokeColor=#b85450;" parent="1" vertex="1">
          <mxGeometry x="900" y="740" width="430" height="230" as="geometry" />
        </mxCell>
        <mxCell id="GgeAHl5cq-EndFfnK4Qn-49" value="" style="edgeStyle=orthogonalEdgeStyle;rounded=0;orthogonalLoop=1;jettySize=auto;html=1;" parent="1" source="GgeAHl5cq-EndFfnK4Qn-47" target="GgeAHl5cq-EndFfnK4Qn-48" edge="1">
          <mxGeometry relative="1" as="geometry" />
        </mxCell>
        <mxCell id="GgeAHl5cq-EndFfnK4Qn-47" value="compare EN wall and email items according to :&amp;nbsp;&lt;div&gt;&lt;div&gt;&lt;b&gt;Group&lt;/b&gt;&lt;/div&gt;&lt;div&gt;&lt;b&gt;EE Name&lt;/b&gt;&lt;/div&gt;&lt;div&gt;&lt;b&gt;Event Name&lt;/b&gt;&lt;/div&gt;&lt;div&gt;&lt;b&gt;Change Date &amp;amp; Time&lt;/b&gt;&lt;/div&gt;&lt;/div&gt;" style="rounded=1;whiteSpace=wrap;html=1;" parent="1" vertex="1">
          <mxGeometry x="155" y="1085" width="220" height="100" as="geometry" />
        </mxCell>
        <mxCell id="GgeAHl5cq-EndFfnK4Qn-65" value="" style="edgeStyle=orthogonalEdgeStyle;rounded=0;orthogonalLoop=1;jettySize=auto;html=1;" parent="1" source="GgeAHl5cq-EndFfnK4Qn-48" target="GgeAHl5cq-EndFfnK4Qn-64" edge="1">
          <mxGeometry relative="1" as="geometry" />
        </mxCell>
        <mxCell id="GgeAHl5cq-EndFfnK4Qn-66" value="Yes" style="edgeLabel;html=1;align=center;verticalAlign=middle;resizable=0;points=[];" parent="GgeAHl5cq-EndFfnK4Qn-65" vertex="1" connectable="0">
          <mxGeometry x="-0.12" y="-1" relative="1" as="geometry">
            <mxPoint x="1" as="offset" />
          </mxGeometry>
        </mxCell>
        <mxCell id="GgeAHl5cq-EndFfnK4Qn-68" value="" style="edgeStyle=orthogonalEdgeStyle;rounded=0;orthogonalLoop=1;jettySize=auto;html=1;" parent="1" source="GgeAHl5cq-EndFfnK4Qn-48" target="GgeAHl5cq-EndFfnK4Qn-67" edge="1">
          <mxGeometry relative="1" as="geometry" />
        </mxCell>
        <mxCell id="GgeAHl5cq-EndFfnK4Qn-69" value="No" style="edgeLabel;html=1;align=center;verticalAlign=middle;resizable=0;points=[];" parent="GgeAHl5cq-EndFfnK4Qn-68" vertex="1" connectable="0">
          <mxGeometry x="-0.3434" y="1" relative="1" as="geometry">
            <mxPoint x="1" as="offset" />
          </mxGeometry>
        </mxCell>
        <mxCell id="GgeAHl5cq-EndFfnK4Qn-48" value="&lt;span style=&quot;font-size: 9pt; font-family: Calibri;&quot;&gt;if EN wall has item exactly match email?&lt;/span&gt;" style="rhombus;whiteSpace=wrap;html=1;rounded=1;" parent="1" vertex="1">
          <mxGeometry x="152.5" y="1225" width="225" height="90" as="geometry" />
        </mxCell>
        <mxCell id="GgeAHl5cq-EndFfnK4Qn-52" value="" style="edgeStyle=orthogonalEdgeStyle;rounded=0;orthogonalLoop=1;jettySize=auto;html=1;" parent="1" source="GgeAHl5cq-EndFfnK4Qn-50" target="GgeAHl5cq-EndFfnK4Qn-41" edge="1">
          <mxGeometry relative="1" as="geometry" />
        </mxCell>
        <mxCell id="GgeAHl5cq-EndFfnK4Qn-87" style="edgeStyle=orthogonalEdgeStyle;rounded=0;orthogonalLoop=1;jettySize=auto;html=1;" parent="1" source="GgeAHl5cq-EndFfnK4Qn-50" target="GgeAHl5cq-EndFfnK4Qn-57" edge="1">
          <mxGeometry relative="1" as="geometry" />
        </mxCell>
        <mxCell id="GgeAHl5cq-EndFfnK4Qn-50" value="retrieve Subject&lt;div&gt;From&amp;nbsp;&lt;/div&gt;&lt;div&gt;Received Date &amp;amp; Time Group&lt;div&gt;EE Name&lt;br&gt;&lt;/div&gt;&lt;div&gt;Event Name&lt;br&gt;&lt;/div&gt;&lt;div&gt;Change Date &amp;amp; Time&lt;br&gt;&lt;/div&gt;&lt;/div&gt;" style="shape=hexagon;perimeter=hexagonPerimeter2;whiteSpace=wrap;html=1;fixedSize=1;rounded=1;" parent="1" vertex="1">
          <mxGeometry x="525.95" y="830" width="149.37" height="120" as="geometry" />
        </mxCell>
        <mxCell id="GgeAHl5cq-EndFfnK4Qn-56" value="" style="edgeStyle=orthogonalEdgeStyle;rounded=0;orthogonalLoop=1;jettySize=auto;html=1;" parent="1" source="GgeAHl5cq-EndFfnK4Qn-54" target="GgeAHl5cq-EndFfnK4Qn-47" edge="1">
          <mxGeometry relative="1" as="geometry" />
        </mxCell>
        <mxCell id="GgeAHl5cq-EndFfnK4Qn-60" value="Yes" style="edgeLabel;html=1;align=center;verticalAlign=middle;resizable=0;points=[];" parent="GgeAHl5cq-EndFfnK4Qn-56" vertex="1" connectable="0">
          <mxGeometry x="-0.4192" y="-1" relative="1" as="geometry">
            <mxPoint x="-5" y="-9" as="offset" />
          </mxGeometry>
        </mxCell>
        <mxCell id="GgeAHl5cq-EndFfnK4Qn-62" value="" style="edgeStyle=orthogonalEdgeStyle;rounded=0;orthogonalLoop=1;jettySize=auto;html=1;" parent="1" source="GgeAHl5cq-EndFfnK4Qn-54" target="GgeAHl5cq-EndFfnK4Qn-61" edge="1">
          <mxGeometry relative="1" as="geometry" />
        </mxCell>
        <mxCell id="GgeAHl5cq-EndFfnK4Qn-63" value="No" style="edgeLabel;html=1;align=center;verticalAlign=middle;resizable=0;points=[];" parent="GgeAHl5cq-EndFfnK4Qn-62" vertex="1" connectable="0">
          <mxGeometry x="-0.4875" y="2" relative="1" as="geometry">
            <mxPoint x="39" y="-8" as="offset" />
          </mxGeometry>
        </mxCell>
        <mxCell id="GgeAHl5cq-EndFfnK4Qn-54" value="Email Subject = [ EXT ] Wall Notifications?" style="rhombus;whiteSpace=wrap;html=1;" parent="1" vertex="1">
          <mxGeometry x="447.19" y="1095" width="306.87" height="80" as="geometry" />
        </mxCell>
        <mxCell id="GgeAHl5cq-EndFfnK4Qn-59" value="" style="edgeStyle=orthogonalEdgeStyle;rounded=0;orthogonalLoop=1;jettySize=auto;html=1;" parent="1" source="GgeAHl5cq-EndFfnK4Qn-57" target="GgeAHl5cq-EndFfnK4Qn-54" edge="1">
          <mxGeometry relative="1" as="geometry" />
        </mxCell>
        <mxCell id="GgeAHl5cq-EndFfnK4Qn-57" value="loop all the extracted email record" style="rounded=1;whiteSpace=wrap;html=1;" parent="1" vertex="1">
          <mxGeometry x="540.63" y="990" width="120" height="60" as="geometry" />
        </mxCell>
        <mxCell id="GgeAHl5cq-EndFfnK4Qn-92" value="" style="edgeStyle=orthogonalEdgeStyle;rounded=0;orthogonalLoop=1;jettySize=auto;html=1;" parent="1" source="GgeAHl5cq-EndFfnK4Qn-61" target="GgeAHl5cq-EndFfnK4Qn-91" edge="1">
          <mxGeometry relative="1" as="geometry" />
        </mxCell>
        <mxCell id="GgeAHl5cq-EndFfnK4Qn-61" value="Retrieve Request Received via Emails Other than EN Wall Notifications" style="rounded=1;whiteSpace=wrap;html=1;" parent="1" vertex="1">
          <mxGeometry x="993.7449999999999" y="1105" width="120" height="60" as="geometry" />
        </mxCell>
        <mxCell id="GgeAHl5cq-EndFfnK4Qn-64" value="EN Request Items Can be Located in Both EN - Wall Notification &amp;amp; Email - EN Notifications?：&quot;Yes&quot;" style="whiteSpace=wrap;html=1;rounded=1;" parent="1" vertex="1">
          <mxGeometry x="-150" y="1240" width="240" height="60" as="geometry" />
        </mxCell>
        <mxCell id="GgeAHl5cq-EndFfnK4Qn-71" value="" style="edgeStyle=orthogonalEdgeStyle;rounded=0;orthogonalLoop=1;jettySize=auto;html=1;" parent="1" source="GgeAHl5cq-EndFfnK4Qn-67" target="GgeAHl5cq-EndFfnK4Qn-70" edge="1">
          <mxGeometry relative="1" as="geometry" />
        </mxCell>
        <mxCell id="GgeAHl5cq-EndFfnK4Qn-67" value="search Group Name in Config:" style="whiteSpace=wrap;html=1;rounded=1;fillColor=#bac8d3;strokeColor=#23445d;" parent="1" vertex="1">
          <mxGeometry x="449.69" y="1243.75" width="110" height="52.5" as="geometry" />
        </mxCell>
        <mxCell id="GgeAHl5cq-EndFfnK4Qn-73" value="" style="edgeStyle=orthogonalEdgeStyle;rounded=0;orthogonalLoop=1;jettySize=auto;html=1;" parent="1" source="GgeAHl5cq-EndFfnK4Qn-70" target="GgeAHl5cq-EndFfnK4Qn-72" edge="1">
          <mxGeometry relative="1" as="geometry" />
        </mxCell>
        <mxCell id="GgeAHl5cq-EndFfnK4Qn-77" value="No" style="edgeLabel;html=1;align=center;verticalAlign=middle;resizable=0;points=[];" parent="GgeAHl5cq-EndFfnK4Qn-73" vertex="1" connectable="0">
          <mxGeometry x="-0.0563" y="2" relative="1" as="geometry">
            <mxPoint as="offset" />
          </mxGeometry>
        </mxCell>
        <mxCell id="GgeAHl5cq-EndFfnK4Qn-75" value="" style="edgeStyle=orthogonalEdgeStyle;rounded=0;orthogonalLoop=1;jettySize=auto;html=1;" parent="1" source="GgeAHl5cq-EndFfnK4Qn-70" target="GgeAHl5cq-EndFfnK4Qn-74" edge="1">
          <mxGeometry relative="1" as="geometry" />
        </mxCell>
        <mxCell id="GgeAHl5cq-EndFfnK4Qn-76" value="Yes" style="edgeLabel;html=1;align=center;verticalAlign=middle;resizable=0;points=[];" parent="GgeAHl5cq-EndFfnK4Qn-75" vertex="1" connectable="0">
          <mxGeometry x="-0.077" y="-1" relative="1" as="geometry">
            <mxPoint as="offset" />
          </mxGeometry>
        </mxCell>
        <mxCell id="GgeAHl5cq-EndFfnK4Qn-70" value="if Group Name in Config" style="rhombus;whiteSpace=wrap;html=1;rounded=1;fillColor=#bac8d3;strokeColor=#23445d;" parent="1" vertex="1">
          <mxGeometry x="464.69" y="1335" width="80" height="80" as="geometry" />
        </mxCell>
        <mxCell id="GgeAHl5cq-EndFfnK4Qn-85" style="edgeStyle=orthogonalEdgeStyle;rounded=0;orthogonalLoop=1;jettySize=auto;html=1;entryX=0.625;entryY=0;entryDx=0;entryDy=0;" parent="1" source="GgeAHl5cq-EndFfnK4Qn-72" target="GgeAHl5cq-EndFfnK4Qn-81" edge="1">
          <mxGeometry relative="1" as="geometry" />
        </mxCell>
        <mxCell id="GgeAHl5cq-EndFfnK4Qn-72" value="&lt;div&gt;Group Name:leave blank&lt;/div&gt;&lt;div&gt;fill in &quot;Group name (xxx) in EN cannot be located from Group List in Work Log&quot; under Automation Notes to Processor column&lt;/div&gt;" style="whiteSpace=wrap;html=1;rounded=1;fillColor=#bac8d3;strokeColor=#23445d;" parent="1" vertex="1">
          <mxGeometry x="604.69" y="1335" width="185.31" height="80" as="geometry" />
        </mxCell>
        <mxCell id="GgeAHl5cq-EndFfnK4Qn-86" style="edgeStyle=orthogonalEdgeStyle;rounded=0;orthogonalLoop=1;jettySize=auto;html=1;entryX=0.375;entryY=0;entryDx=0;entryDy=0;" parent="1" source="GgeAHl5cq-EndFfnK4Qn-74" target="GgeAHl5cq-EndFfnK4Qn-81" edge="1">
          <mxGeometry relative="1" as="geometry" />
        </mxCell>
        <mxCell id="GgeAHl5cq-EndFfnK4Qn-74" value="Group Name: mapping result from Config" style="whiteSpace=wrap;html=1;rounded=1;fillColor=#bac8d3;strokeColor=#23445d;" parent="1" vertex="1">
          <mxGeometry x="260" y="1345" width="144.69" height="60" as="geometry" />
        </mxCell>
        <mxCell id="GgeAHl5cq-EndFfnK4Qn-81" value="&lt;div&gt;&lt;span style=&quot;font-size: 9pt; font-family: Calibri; font-weight: bold; vertical-align: baseline;&quot;&gt;Group&lt;/span&gt;&lt;span style=&quot;font-size: 9pt; font-family: Calibri; vertical-align: baseline;&quot;&gt;:&amp;nbsp;&lt;/span&gt;&lt;span style=&quot;background-color: initial;&quot;&gt;Group Name&lt;/span&gt;&lt;br&gt;&lt;/div&gt;&lt;div&gt;EE Name:&amp;nbsp;&lt;span style=&quot;background-color: initial;&quot;&gt;EE Name&lt;/span&gt;&lt;/div&gt;&lt;div&gt;Employee ID in EN: N/A&lt;/div&gt;&lt;div&gt;Where the Request Items Come From?: &quot;Email - EN Notifications&quot;&lt;/div&gt;&lt;div&gt;EN Request Items Can be Located in Both EN - Wall Notification &amp;amp; Email - EN Notifications?:&quot;No&quot;&lt;/div&gt;&lt;div&gt;Received Date &amp;amp; Time (CST): Email Received Date; Format example: 2/28/2024&amp;nbsp; 3:49:00 PM&lt;/div&gt;&lt;div&gt;Email Subject | From for Request Items Received from Email&lt;/div&gt;&lt;div&gt;Event Name for Request Items Received from EN - Wall Notification &amp;amp; Email - EN Notifications&lt;/div&gt;&lt;div&gt;Change Date &amp;amp; Time; Format example: 2/28/2024&amp;nbsp; 3:49:00 PM&lt;/div&gt;" style="shape=hexagon;perimeter=hexagonPerimeter2;whiteSpace=wrap;html=1;fixedSize=1;rounded=1;fillColor=#bac8d3;strokeColor=#23445d;" parent="1" vertex="1">
          <mxGeometry x="251" y="1495" width="487.66" height="190" as="geometry" />
        </mxCell>
        <mxCell id="GgeAHl5cq-EndFfnK4Qn-88" value="Main Step" style="rounded=1;whiteSpace=wrap;html=1;fillColor=#dae8fc;strokeColor=#6c8ebf;" parent="1" vertex="1">
          <mxGeometry x="740" y="10" width="120" height="60" as="geometry" />
        </mxCell>
        <mxCell id="GgeAHl5cq-EndFfnK4Qn-89" value="Sub flow" style="rounded=1;whiteSpace=wrap;html=1;fillColor=#fff2cc;strokeColor=#d6b656;" parent="1" vertex="1">
          <mxGeometry x="870" y="10" width="120" height="60" as="geometry" />
        </mxCell>
        <mxCell id="GgeAHl5cq-EndFfnK4Qn-90" value="Sub function" style="rounded=1;whiteSpace=wrap;html=1;fillColor=#ffe6cc;strokeColor=#d79b00;" parent="1" vertex="1">
          <mxGeometry x="1000" y="10" width="120" height="60" as="geometry" />
        </mxCell>
        <mxCell id="GgeAHl5cq-EndFfnK4Qn-94" value="" style="edgeStyle=orthogonalEdgeStyle;rounded=0;orthogonalLoop=1;jettySize=auto;html=1;" parent="1" source="GgeAHl5cq-EndFfnK4Qn-91" target="GgeAHl5cq-EndFfnK4Qn-93" edge="1">
          <mxGeometry relative="1" as="geometry" />
        </mxCell>
        <mxCell id="GgeAHl5cq-EndFfnK4Qn-91" value="Update below columns in Work Log for each email" style="whiteSpace=wrap;html=1;rounded=1;" parent="1" vertex="1">
          <mxGeometry x="993.7449999999999" y="1200" width="120" height="60" as="geometry" />
        </mxCell>
        <mxCell id="GgeAHl5cq-EndFfnK4Qn-93" value="&lt;div&gt;&lt;b&gt;Group Name&lt;/b&gt;&lt;/div&gt;&lt;div&gt;&lt;b&gt;Employee Name&lt;/b&gt;&lt;/div&gt;&lt;div&gt;&lt;b&gt;Where the Request Items Come From?:&lt;/b&gt; &quot;Email - Other than EN Notifications&quot;&lt;/div&gt;&lt;div&gt;&lt;b&gt;EN Request Items Can be Located in Both EN - Wall Notification &amp;amp; Email - EN Notifications?:&amp;nbsp;&lt;/b&gt; &quot;N/A&quot;&lt;/div&gt;&lt;div&gt;&lt;b&gt;Received Date &amp;amp; Time (CST):&lt;/b&gt; Email Received Date &amp;amp; Time; Format example 2/28/2024&amp;nbsp; 3:49:00 PM&lt;/div&gt;&lt;div&gt;&lt;b&gt;Email Subject | From for Request Items Received from Email&lt;/b&gt;&lt;/div&gt;&lt;div&gt;&lt;b&gt;Event Name for Request Items Received from EN - Wall Notification &amp;amp; Email - EN Notifications:&lt;/b&gt; &quot;N/A&quot;&lt;/div&gt;&lt;div&gt;&lt;b&gt;Change Date &amp;amp; Time:&amp;nbsp;&lt;/b&gt;&amp;nbsp;&quot;N/A&quot;&lt;/div&gt;" style="shape=hexagon;perimeter=hexagonPerimeter2;whiteSpace=wrap;html=1;fixedSize=1;rounded=1;" parent="1" vertex="1">
          <mxGeometry x="818.75" y="1280" width="470" height="190" as="geometry" />
        </mxCell>
        <mxCell id="GgeAHl5cq-EndFfnK4Qn-95" value="&lt;p style=&quot;language:en-US;margin-top:0pt;margin-bottom:0pt;margin-left:0in;&lt;br/&gt;text-indent:0in;text-align:left&quot;&gt;&lt;span style=&quot;font-size: 9pt; font-family: Calibri; color: red;&quot;&gt;TBD: whether&lt;/span&gt;&lt;span style=&quot;font-size: 9pt; font-family: Calibri; color: red; vertical-align: baseline;&quot;&gt; has&lt;br&gt;challenge to identify group name and Employee name from email&lt;/span&gt;&lt;/p&gt;&lt;p style=&quot;language:en-US;margin-top:0pt;margin-bottom:0pt;margin-left:0in;&lt;br/&gt;text-indent:0in;text-align:left&quot;&gt;&lt;span style=&quot;font-size: 9pt; font-family: Calibri; vertical-align: baseline;&quot;&gt;YES, only email subj and body can extracted by automation&lt;/span&gt;&lt;/p&gt;" style="ellipse;whiteSpace=wrap;html=1;fillColor=#f8cecc;strokeColor=#b85450;" parent="1" vertex="1">
          <mxGeometry x="830" y="1510" width="440" height="80" as="geometry" />
        </mxCell>
        <mxCell id="GgeAHl5cq-EndFfnK4Qn-96" value="TBD or Question mark" style="ellipse;whiteSpace=wrap;html=1;fillColor=#f8cecc;strokeColor=#b85450;" parent="1" vertex="1">
          <mxGeometry x="1135" width="125" height="80" as="geometry" />
        </mxCell>
        <mxCell id="GgeAHl5cq-EndFfnK4Qn-257" style="edgeStyle=orthogonalEdgeStyle;rounded=0;orthogonalLoop=1;jettySize=auto;html=1;" parent="1" source="GgeAHl5cq-EndFfnK4Qn-106" target="GgeAHl5cq-EndFfnK4Qn-97" edge="1">
          <mxGeometry relative="1" as="geometry" />
        </mxCell>
        <mxCell id="GgeAHl5cq-EndFfnK4Qn-106" value="Identify Request Type Info for Each Request Item" style="swimlane;fontSize=21;fontColor=#FFFFFF;labelBackgroundColor=#3333FF;align=center;" parent="1" vertex="1">
          <mxGeometry x="-405" y="1820" width="1830" height="2550" as="geometry" />
        </mxCell>
        <mxCell id="GgeAHl5cq-EndFfnK4Qn-243" value="" style="edgeStyle=orthogonalEdgeStyle;rounded=0;orthogonalLoop=1;jettySize=auto;html=1;" parent="GgeAHl5cq-EndFfnK4Qn-106" source="GgeAHl5cq-EndFfnK4Qn-236" target="GgeAHl5cq-EndFfnK4Qn-242" edge="1">
          <mxGeometry relative="1" as="geometry" />
        </mxCell>
        <mxCell id="GgeAHl5cq-EndFfnK4Qn-236" value="" style="rounded=0;whiteSpace=wrap;html=1;fillColor=#fff2cc;strokeColor=#d6b656;" parent="GgeAHl5cq-EndFfnK4Qn-106" vertex="1">
          <mxGeometry x="355" y="2150" width="1000" height="280" as="geometry" />
        </mxCell>
        <mxCell id="GgeAHl5cq-EndFfnK4Qn-245" value="" style="edgeStyle=orthogonalEdgeStyle;rounded=0;orthogonalLoop=1;jettySize=auto;html=1;" parent="GgeAHl5cq-EndFfnK4Qn-106" source="GgeAHl5cq-EndFfnK4Qn-150" target="GgeAHl5cq-EndFfnK4Qn-168" edge="1">
          <mxGeometry relative="1" as="geometry" />
        </mxCell>
        <mxCell id="GgeAHl5cq-EndFfnK4Qn-150" value="" style="rounded=0;whiteSpace=wrap;html=1;fillColor=#fff2cc;strokeColor=#d6b656;" parent="GgeAHl5cq-EndFfnK4Qn-106" vertex="1">
          <mxGeometry x="355.46" y="890" width="1000" height="360" as="geometry" />
        </mxCell>
        <mxCell id="GgeAHl5cq-EndFfnK4Qn-110" value="" style="edgeStyle=orthogonalEdgeStyle;rounded=0;orthogonalLoop=1;jettySize=auto;html=1;" parent="GgeAHl5cq-EndFfnK4Qn-106" source="GgeAHl5cq-EndFfnK4Qn-107" target="GgeAHl5cq-EndFfnK4Qn-109" edge="1">
          <mxGeometry relative="1" as="geometry" />
        </mxCell>
        <mxCell id="GgeAHl5cq-EndFfnK4Qn-107" value="Generate &amp;amp; Retrieve EN Reports for All EN Groups in Work Log" style="rounded=1;whiteSpace=wrap;html=1;fillColor=#dae8fc;strokeColor=#6c8ebf;" parent="GgeAHl5cq-EndFfnK4Qn-106" vertex="1">
          <mxGeometry x="337.6500000000001" y="140" width="245" height="60" as="geometry" />
        </mxCell>
        <mxCell id="GgeAHl5cq-EndFfnK4Qn-248" style="edgeStyle=orthogonalEdgeStyle;rounded=0;orthogonalLoop=1;jettySize=auto;html=1;entryX=0.5;entryY=0;entryDx=0;entryDy=0;" parent="GgeAHl5cq-EndFfnK4Qn-106" source="GgeAHl5cq-EndFfnK4Qn-109" target="GgeAHl5cq-EndFfnK4Qn-148" edge="1">
          <mxGeometry relative="1" as="geometry">
            <Array as="points">
              <mxPoint x="460" y="740" />
              <mxPoint x="856" y="740" />
            </Array>
          </mxGeometry>
        </mxCell>
        <mxCell id="GgeAHl5cq-EndFfnK4Qn-109" value="" style="rounded=0;whiteSpace=wrap;html=1;fillColor=#fff2cc;strokeColor=#d6b656;" parent="GgeAHl5cq-EndFfnK4Qn-106" vertex="1">
          <mxGeometry x="285" y="250" width="350.31" height="380" as="geometry" />
        </mxCell>
        <mxCell id="GgeAHl5cq-EndFfnK4Qn-119" value="" style="edgeStyle=orthogonalEdgeStyle;rounded=0;orthogonalLoop=1;jettySize=auto;html=1;" parent="GgeAHl5cq-EndFfnK4Qn-106" source="GgeAHl5cq-EndFfnK4Qn-111" target="GgeAHl5cq-EndFfnK4Qn-118" edge="1">
          <mxGeometry relative="1" as="geometry" />
        </mxCell>
        <mxCell id="GgeAHl5cq-EndFfnK4Qn-111" value="Generate &lt;b&gt;Enrollment Changes Report, Event Report, Demographic Changes Report&lt;/b&gt;" style="rounded=1;whiteSpace=wrap;html=1;" parent="GgeAHl5cq-EndFfnK4Qn-106" vertex="1">
          <mxGeometry x="360.31000000000006" y="470" width="180" height="60" as="geometry" />
        </mxCell>
        <mxCell id="GgeAHl5cq-EndFfnK4Qn-117" value="" style="edgeStyle=orthogonalEdgeStyle;rounded=0;orthogonalLoop=1;jettySize=auto;html=1;" parent="GgeAHl5cq-EndFfnK4Qn-106" source="GgeAHl5cq-EndFfnK4Qn-113" target="GgeAHl5cq-EndFfnK4Qn-111" edge="1">
          <mxGeometry relative="1" as="geometry" />
        </mxCell>
        <mxCell id="GgeAHl5cq-EndFfnK4Qn-113" value="create sub folder per Group" style="rounded=1;whiteSpace=wrap;html=1;" parent="GgeAHl5cq-EndFfnK4Qn-106" vertex="1">
          <mxGeometry x="390.31000000000006" y="410" width="120" height="40" as="geometry" />
        </mxCell>
        <mxCell id="GgeAHl5cq-EndFfnK4Qn-115" value="" style="edgeStyle=orthogonalEdgeStyle;rounded=0;orthogonalLoop=1;jettySize=auto;html=1;" parent="GgeAHl5cq-EndFfnK4Qn-106" source="GgeAHl5cq-EndFfnK4Qn-114" target="GgeAHl5cq-EndFfnK4Qn-112" edge="1">
          <mxGeometry relative="1" as="geometry" />
        </mxCell>
        <mxCell id="GgeAHl5cq-EndFfnK4Qn-114" value="loop worklog and get all group names except for received via Email - Other than EN Notifications" style="rounded=1;whiteSpace=wrap;html=1;" parent="GgeAHl5cq-EndFfnK4Qn-106" vertex="1">
          <mxGeometry x="320.31000000000006" y="270" width="260" height="60" as="geometry" />
        </mxCell>
        <mxCell id="GgeAHl5cq-EndFfnK4Qn-116" value="" style="edgeStyle=orthogonalEdgeStyle;rounded=0;orthogonalLoop=1;jettySize=auto;html=1;" parent="GgeAHl5cq-EndFfnK4Qn-106" source="GgeAHl5cq-EndFfnK4Qn-112" target="GgeAHl5cq-EndFfnK4Qn-113" edge="1">
          <mxGeometry relative="1" as="geometry" />
        </mxCell>
        <mxCell id="GgeAHl5cq-EndFfnK4Qn-112" value="&lt;div&gt;Create folder per Received Date&lt;/div&gt;" style="rounded=1;whiteSpace=wrap;html=1;" parent="GgeAHl5cq-EndFfnK4Qn-106" vertex="1">
          <mxGeometry x="390.31000000000006" y="350" width="120" height="40" as="geometry" />
        </mxCell>
        <mxCell id="GgeAHl5cq-EndFfnK4Qn-120" style="edgeStyle=orthogonalEdgeStyle;rounded=0;orthogonalLoop=1;jettySize=auto;html=1;entryX=1;entryY=0.5;entryDx=0;entryDy=0;" parent="GgeAHl5cq-EndFfnK4Qn-106" source="GgeAHl5cq-EndFfnK4Qn-118" target="GgeAHl5cq-EndFfnK4Qn-111" edge="1">
          <mxGeometry relative="1" as="geometry">
            <Array as="points">
              <mxPoint x="605.31" y="590" />
              <mxPoint x="605.31" y="500" />
            </Array>
          </mxGeometry>
        </mxCell>
        <mxCell id="GgeAHl5cq-EndFfnK4Qn-121" value="Next report" style="edgeLabel;html=1;align=center;verticalAlign=middle;resizable=0;points=[];" parent="GgeAHl5cq-EndFfnK4Qn-120" vertex="1" connectable="0">
          <mxGeometry x="0.104" y="2" relative="1" as="geometry">
            <mxPoint y="-1" as="offset" />
          </mxGeometry>
        </mxCell>
        <mxCell id="GgeAHl5cq-EndFfnK4Qn-118" value="&lt;div&gt;save reports to corresponding Group folder&lt;/div&gt;" style="whiteSpace=wrap;html=1;rounded=1;" parent="GgeAHl5cq-EndFfnK4Qn-106" vertex="1">
          <mxGeometry x="390.31000000000006" y="550" width="120" height="60" as="geometry" />
        </mxCell>
        <mxCell id="GgeAHl5cq-EndFfnK4Qn-122" value="" style="edgeStyle=orthogonalEdgeStyle;rounded=0;orthogonalLoop=1;jettySize=auto;html=1;" parent="GgeAHl5cq-EndFfnK4Qn-106" source="GgeAHl5cq-EndFfnK4Qn-123" target="GgeAHl5cq-EndFfnK4Qn-124" edge="1">
          <mxGeometry relative="1" as="geometry" />
        </mxCell>
        <mxCell id="GgeAHl5cq-EndFfnK4Qn-123" value="Retrieve Info from EN for All EN EE in Work Log" style="rounded=1;whiteSpace=wrap;html=1;fillColor=#dae8fc;strokeColor=#6c8ebf;" parent="GgeAHl5cq-EndFfnK4Qn-106" vertex="1">
          <mxGeometry x="1158.94" y="80" width="245" height="60" as="geometry" />
        </mxCell>
        <mxCell id="GgeAHl5cq-EndFfnK4Qn-246" value="" style="edgeStyle=orthogonalEdgeStyle;rounded=0;orthogonalLoop=1;jettySize=auto;html=1;" parent="GgeAHl5cq-EndFfnK4Qn-106" source="GgeAHl5cq-EndFfnK4Qn-124" target="GgeAHl5cq-EndFfnK4Qn-148" edge="1">
          <mxGeometry relative="1" as="geometry" />
        </mxCell>
        <mxCell id="GgeAHl5cq-EndFfnK4Qn-124" value="" style="rounded=0;whiteSpace=wrap;html=1;fillColor=#fff2cc;strokeColor=#d6b656;" parent="GgeAHl5cq-EndFfnK4Qn-106" vertex="1">
          <mxGeometry x="998.94" y="170" width="565" height="520" as="geometry" />
        </mxCell>
        <mxCell id="GgeAHl5cq-EndFfnK4Qn-129" value="" style="edgeStyle=orthogonalEdgeStyle;rounded=0;orthogonalLoop=1;jettySize=auto;html=1;" parent="GgeAHl5cq-EndFfnK4Qn-106" source="GgeAHl5cq-EndFfnK4Qn-130" target="GgeAHl5cq-EndFfnK4Qn-132" edge="1">
          <mxGeometry relative="1" as="geometry" />
        </mxCell>
        <mxCell id="GgeAHl5cq-EndFfnK4Qn-130" value="Locate EE in EN" style="rounded=1;whiteSpace=wrap;html=1;" parent="GgeAHl5cq-EndFfnK4Qn-106" vertex="1">
          <mxGeometry x="1034.25" y="190" width="260" height="60" as="geometry" />
        </mxCell>
        <mxCell id="GgeAHl5cq-EndFfnK4Qn-137" value="" style="edgeStyle=orthogonalEdgeStyle;rounded=0;orthogonalLoop=1;jettySize=auto;html=1;" parent="GgeAHl5cq-EndFfnK4Qn-106" source="GgeAHl5cq-EndFfnK4Qn-132" target="GgeAHl5cq-EndFfnK4Qn-136" edge="1">
          <mxGeometry relative="1" as="geometry" />
        </mxCell>
        <mxCell id="GgeAHl5cq-EndFfnK4Qn-139" value="" style="edgeStyle=orthogonalEdgeStyle;rounded=0;orthogonalLoop=1;jettySize=auto;html=1;" parent="GgeAHl5cq-EndFfnK4Qn-106" source="GgeAHl5cq-EndFfnK4Qn-132" target="GgeAHl5cq-EndFfnK4Qn-138" edge="1">
          <mxGeometry relative="1" as="geometry" />
        </mxCell>
        <mxCell id="GgeAHl5cq-EndFfnK4Qn-132" value="&lt;div&gt;Extract info from Benefit Summary page for Current Period only, including all sections:&lt;/div&gt;" style="rounded=1;whiteSpace=wrap;html=1;fillColor=#F19C99;" parent="GgeAHl5cq-EndFfnK4Qn-106" vertex="1">
          <mxGeometry x="1039.3999999999999" y="280" width="249.69" height="40" as="geometry" />
        </mxCell>
        <mxCell id="GgeAHl5cq-EndFfnK4Qn-136" value="&lt;div&gt;Enrolled Plans&lt;/div&gt;&lt;div&gt;Dependents&lt;/div&gt;&lt;div&gt;Declined Coverage&lt;/div&gt;&lt;div&gt;Cafeteria Plans&lt;/div&gt;&lt;div&gt;Dependents&lt;/div&gt;&lt;div&gt;Health Savings Account&lt;/div&gt;&lt;div&gt;Declined Coverage&lt;/div&gt;&lt;div&gt;Ended Coverage&lt;/div&gt;" style="shape=hexagon;perimeter=hexagonPerimeter2;whiteSpace=wrap;html=1;fixedSize=1;rounded=1;" parent="GgeAHl5cq-EndFfnK4Qn-106" vertex="1">
          <mxGeometry x="1335" y="220" width="175" height="160" as="geometry" />
        </mxCell>
        <mxCell id="GgeAHl5cq-EndFfnK4Qn-141" value="" style="edgeStyle=orthogonalEdgeStyle;rounded=0;orthogonalLoop=1;jettySize=auto;html=1;" parent="GgeAHl5cq-EndFfnK4Qn-106" source="GgeAHl5cq-EndFfnK4Qn-138" target="GgeAHl5cq-EndFfnK4Qn-140" edge="1">
          <mxGeometry relative="1" as="geometry" />
        </mxCell>
        <mxCell id="GgeAHl5cq-EndFfnK4Qn-138" value="Extract info from Employee Data Sheet" style="whiteSpace=wrap;html=1;rounded=1;" parent="GgeAHl5cq-EndFfnK4Qn-106" vertex="1">
          <mxGeometry x="1043.06" y="350" width="242.36" height="30" as="geometry" />
        </mxCell>
        <mxCell id="GgeAHl5cq-EndFfnK4Qn-143" value="" style="edgeStyle=orthogonalEdgeStyle;rounded=0;orthogonalLoop=1;jettySize=auto;html=1;" parent="GgeAHl5cq-EndFfnK4Qn-106" source="GgeAHl5cq-EndFfnK4Qn-140" target="GgeAHl5cq-EndFfnK4Qn-142" edge="1">
          <mxGeometry relative="1" as="geometry" />
        </mxCell>
        <mxCell id="GgeAHl5cq-EndFfnK4Qn-140" value="Extrat info from Employee Home Page" style="whiteSpace=wrap;html=1;rounded=1;fillColor=#F19C99;" parent="GgeAHl5cq-EndFfnK4Qn-106" vertex="1">
          <mxGeometry x="1045" y="405" width="237.88" height="30" as="geometry" />
        </mxCell>
        <mxCell id="GgeAHl5cq-EndFfnK4Qn-145" value="" style="edgeStyle=orthogonalEdgeStyle;rounded=0;orthogonalLoop=1;jettySize=auto;html=1;" parent="GgeAHl5cq-EndFfnK4Qn-106" source="GgeAHl5cq-EndFfnK4Qn-142" target="GgeAHl5cq-EndFfnK4Qn-144" edge="1">
          <mxGeometry relative="1" as="geometry" />
        </mxCell>
        <mxCell id="GgeAHl5cq-EndFfnK4Qn-142" value="Extract info from Timeline page" style="whiteSpace=wrap;html=1;rounded=1;fillColor=#F19C99;" parent="GgeAHl5cq-EndFfnK4Qn-106" vertex="1">
          <mxGeometry x="1042.88" y="460" width="240" height="30" as="geometry" />
        </mxCell>
        <mxCell id="GgeAHl5cq-EndFfnK4Qn-147" value="" style="edgeStyle=orthogonalEdgeStyle;rounded=0;orthogonalLoop=1;jettySize=auto;html=1;" parent="GgeAHl5cq-EndFfnK4Qn-106" source="GgeAHl5cq-EndFfnK4Qn-144" target="GgeAHl5cq-EndFfnK4Qn-146" edge="1">
          <mxGeometry relative="1" as="geometry" />
        </mxCell>
        <mxCell id="GgeAHl5cq-EndFfnK4Qn-144" value="Save the info in an excel, per EE per file, per tab per sheet" style="whiteSpace=wrap;html=1;rounded=1;align=left;" parent="GgeAHl5cq-EndFfnK4Qn-106" vertex="1">
          <mxGeometry x="1027.88" y="525" width="270" height="45" as="geometry" />
        </mxCell>
        <mxCell id="GgeAHl5cq-EndFfnK4Qn-146" value="Save the file in&lt;b&gt; corresponding Group&#39;s folder with file name: EE name&lt;/b&gt;" style="whiteSpace=wrap;html=1;align=left;rounded=1;" parent="GgeAHl5cq-EndFfnK4Qn-106" vertex="1">
          <mxGeometry x="1046.8400000000001" y="600" width="232.08" height="60" as="geometry" />
        </mxCell>
        <mxCell id="GgeAHl5cq-EndFfnK4Qn-152" style="edgeStyle=orthogonalEdgeStyle;rounded=0;orthogonalLoop=1;jettySize=auto;html=1;" parent="GgeAHl5cq-EndFfnK4Qn-106" source="GgeAHl5cq-EndFfnK4Qn-148" target="GgeAHl5cq-EndFfnK4Qn-150" edge="1">
          <mxGeometry relative="1" as="geometry" />
        </mxCell>
        <mxCell id="GgeAHl5cq-EndFfnK4Qn-148" value="Identify &#39;Out of Scope&#39; Items per Event Type" style="rounded=1;whiteSpace=wrap;html=1;fillColor=#dae8fc;strokeColor=#6c8ebf;" parent="GgeAHl5cq-EndFfnK4Qn-106" vertex="1">
          <mxGeometry x="690.46" y="790" width="330" height="60" as="geometry" />
        </mxCell>
        <mxCell id="GgeAHl5cq-EndFfnK4Qn-154" value="" style="edgeStyle=orthogonalEdgeStyle;rounded=0;orthogonalLoop=1;jettySize=auto;html=1;" parent="GgeAHl5cq-EndFfnK4Qn-106" source="GgeAHl5cq-EndFfnK4Qn-149" target="GgeAHl5cq-EndFfnK4Qn-153" edge="1">
          <mxGeometry relative="1" as="geometry" />
        </mxCell>
        <mxCell id="EwP7op--CkbYztGHFEWx-6" value="" style="edgeStyle=orthogonalEdgeStyle;rounded=0;orthogonalLoop=1;jettySize=auto;html=1;" parent="GgeAHl5cq-EndFfnK4Qn-106" source="GgeAHl5cq-EndFfnK4Qn-149" target="EwP7op--CkbYztGHFEWx-5" edge="1">
          <mxGeometry relative="1" as="geometry" />
        </mxCell>
        <mxCell id="GgeAHl5cq-EndFfnK4Qn-149" value="Retrieve &#39;Out of Scope Event Type&#39; list from Config tab of Work Log" style="rounded=1;whiteSpace=wrap;html=1;" parent="GgeAHl5cq-EndFfnK4Qn-106" vertex="1">
          <mxGeometry x="717.4200000000001" y="910" width="276.06" height="60" as="geometry" />
        </mxCell>
        <mxCell id="GgeAHl5cq-EndFfnK4Qn-158" value="" style="edgeStyle=orthogonalEdgeStyle;rounded=0;orthogonalLoop=1;jettySize=auto;html=1;" parent="GgeAHl5cq-EndFfnK4Qn-106" source="GgeAHl5cq-EndFfnK4Qn-153" target="GgeAHl5cq-EndFfnK4Qn-157" edge="1">
          <mxGeometry relative="1" as="geometry" />
        </mxCell>
        <mxCell id="GgeAHl5cq-EndFfnK4Qn-153" value="Loop each request item per Event Name for Request Items Received from EN - Wall Notification &amp;amp; Email - EN Notifications column" style="whiteSpace=wrap;html=1;rounded=1;" parent="GgeAHl5cq-EndFfnK4Qn-106" vertex="1">
          <mxGeometry x="671.97" y="1010" width="366.97" height="60" as="geometry" />
        </mxCell>
        <mxCell id="GgeAHl5cq-EndFfnK4Qn-160" value="" style="edgeStyle=orthogonalEdgeStyle;rounded=0;orthogonalLoop=1;jettySize=auto;html=1;entryX=1;entryY=0.5;entryDx=0;entryDy=0;" parent="GgeAHl5cq-EndFfnK4Qn-106" source="GgeAHl5cq-EndFfnK4Qn-157" target="GgeAHl5cq-EndFfnK4Qn-162" edge="1">
          <mxGeometry relative="1" as="geometry">
            <mxPoint x="461.3850000000001" y="1150" as="targetPoint" />
          </mxGeometry>
        </mxCell>
        <mxCell id="GgeAHl5cq-EndFfnK4Qn-161" value="Yes" style="edgeLabel;html=1;align=center;verticalAlign=middle;resizable=0;points=[];" parent="GgeAHl5cq-EndFfnK4Qn-160" vertex="1" connectable="0">
          <mxGeometry x="-0.0143" y="-1" relative="1" as="geometry">
            <mxPoint as="offset" />
          </mxGeometry>
        </mxCell>
        <mxCell id="GgeAHl5cq-EndFfnK4Qn-164" value="" style="edgeStyle=orthogonalEdgeStyle;rounded=0;orthogonalLoop=1;jettySize=auto;html=1;" parent="GgeAHl5cq-EndFfnK4Qn-106" source="GgeAHl5cq-EndFfnK4Qn-157" target="GgeAHl5cq-EndFfnK4Qn-163" edge="1">
          <mxGeometry relative="1" as="geometry" />
        </mxCell>
        <mxCell id="GgeAHl5cq-EndFfnK4Qn-165" value="No" style="edgeLabel;html=1;align=center;verticalAlign=middle;resizable=0;points=[];" parent="GgeAHl5cq-EndFfnK4Qn-164" vertex="1" connectable="0">
          <mxGeometry x="-0.0404" y="2" relative="1" as="geometry">
            <mxPoint as="offset" />
          </mxGeometry>
        </mxCell>
        <mxCell id="GgeAHl5cq-EndFfnK4Qn-157" value="Event Name contains the wording of any item in the list" style="rhombus;whiteSpace=wrap;html=1;rounded=1;fillColor=#e1d5e7;strokeColor=#9673a6;" parent="GgeAHl5cq-EndFfnK4Qn-106" vertex="1">
          <mxGeometry x="668.4200000000001" y="1110" width="374.07" height="80" as="geometry" />
        </mxCell>
        <mxCell id="GgeAHl5cq-EndFfnK4Qn-162" value="&lt;div&gt;update below columns in Work Log&lt;/div&gt;&lt;div&gt;&lt;b&gt;Task Type&lt;/b&gt;: &quot;N/A&quot;&lt;/div&gt;&lt;div&gt;&amp;nbsp; &amp;nbsp;&lt;b&gt; Carrier&lt;/b&gt;: &quot;N/A&quot;&lt;/div&gt;&lt;div&gt;&lt;b&gt;Reason for Enrollment / Termination&lt;/b&gt;: &quot;N/A&quot;&lt;/div&gt;&lt;div&gt;&lt;b&gt;Plan Name&lt;/b&gt;: &quot;N/A&quot;&lt;/div&gt;&lt;div&gt;&lt;b&gt;Reason for No Need to Process&lt;/b&gt;: &quot;Out of scope items per event type - &quot; + corresponding item in Config tab&lt;/div&gt;" style="shape=hexagon;perimeter=hexagonPerimeter2;html=1;fixedSize=1;align=center;horizontal=1;verticalAlign=middle;whiteSpace=wrap;" parent="GgeAHl5cq-EndFfnK4Qn-106" vertex="1">
          <mxGeometry x="360" y="1062.5" width="250.46" height="175" as="geometry" />
        </mxCell>
        <mxCell id="GgeAHl5cq-EndFfnK4Qn-163" value="continue" style="whiteSpace=wrap;html=1;rounded=1;" parent="GgeAHl5cq-EndFfnK4Qn-106" vertex="1">
          <mxGeometry x="1135.155" y="1120" width="120" height="60" as="geometry" />
        </mxCell>
        <mxCell id="GgeAHl5cq-EndFfnK4Qn-244" value="" style="edgeStyle=orthogonalEdgeStyle;rounded=0;orthogonalLoop=1;jettySize=auto;html=1;entryX=0.5;entryY=0;entryDx=0;entryDy=0;" parent="GgeAHl5cq-EndFfnK4Qn-106" source="GgeAHl5cq-EndFfnK4Qn-166" target="GgeAHl5cq-EndFfnK4Qn-233" edge="1">
          <mxGeometry relative="1" as="geometry">
            <mxPoint x="835.15" y="2060" as="targetPoint" />
          </mxGeometry>
        </mxCell>
        <mxCell id="GgeAHl5cq-EndFfnK4Qn-166" value="" style="rounded=0;whiteSpace=wrap;html=1;fillColor=#fff2cc;strokeColor=#d6b656;" parent="GgeAHl5cq-EndFfnK4Qn-106" vertex="1">
          <mxGeometry x="170.46" y="1390" width="1370" height="620" as="geometry" />
        </mxCell>
        <mxCell id="GgeAHl5cq-EndFfnK4Qn-167" style="edgeStyle=orthogonalEdgeStyle;rounded=0;orthogonalLoop=1;jettySize=auto;html=1;" parent="GgeAHl5cq-EndFfnK4Qn-106" source="GgeAHl5cq-EndFfnK4Qn-168" target="GgeAHl5cq-EndFfnK4Qn-166" edge="1">
          <mxGeometry relative="1" as="geometry" />
        </mxCell>
        <mxCell id="GgeAHl5cq-EndFfnK4Qn-168" value="Identify Plan Name &amp;amp; Carrier" style="rounded=1;whiteSpace=wrap;html=1;fillColor=#dae8fc;strokeColor=#6c8ebf;" parent="GgeAHl5cq-EndFfnK4Qn-106" vertex="1">
          <mxGeometry x="690.4599999999999" y="1300" width="330" height="60" as="geometry" />
        </mxCell>
        <mxCell id="GgeAHl5cq-EndFfnK4Qn-169" value="" style="edgeStyle=orthogonalEdgeStyle;rounded=0;orthogonalLoop=1;jettySize=auto;html=1;" parent="GgeAHl5cq-EndFfnK4Qn-106" source="GgeAHl5cq-EndFfnK4Qn-170" target="GgeAHl5cq-EndFfnK4Qn-172" edge="1">
          <mxGeometry relative="1" as="geometry" />
        </mxCell>
        <mxCell id="EwP7op--CkbYztGHFEWx-8" value="" style="edgeStyle=orthogonalEdgeStyle;rounded=0;orthogonalLoop=1;jettySize=auto;html=1;" parent="GgeAHl5cq-EndFfnK4Qn-106" source="GgeAHl5cq-EndFfnK4Qn-170" target="EwP7op--CkbYztGHFEWx-7" edge="1">
          <mxGeometry relative="1" as="geometry" />
        </mxCell>
        <mxCell id="GgeAHl5cq-EndFfnK4Qn-170" value="Retrieve &#39;Event Type Related to Drop Coverage &amp;amp; Termination&quot; list from Config tab of Work Log" style="rounded=1;whiteSpace=wrap;html=1;" parent="GgeAHl5cq-EndFfnK4Qn-106" vertex="1">
          <mxGeometry x="617.42" y="1410" width="276.06" height="60" as="geometry" />
        </mxCell>
        <mxCell id="GgeAHl5cq-EndFfnK4Qn-171" value="" style="edgeStyle=orthogonalEdgeStyle;rounded=0;orthogonalLoop=1;jettySize=auto;html=1;" parent="GgeAHl5cq-EndFfnK4Qn-106" source="GgeAHl5cq-EndFfnK4Qn-172" target="GgeAHl5cq-EndFfnK4Qn-177" edge="1">
          <mxGeometry relative="1" as="geometry" />
        </mxCell>
        <mxCell id="GgeAHl5cq-EndFfnK4Qn-172" value="Loop each request item per per&lt;b&gt; Event Name for Request Items Received from EN - Wall Notification &amp;amp; Email - EN Notifications column&lt;/b&gt;" style="whiteSpace=wrap;html=1;rounded=1;" parent="GgeAHl5cq-EndFfnK4Qn-106" vertex="1">
          <mxGeometry x="571.9699999999999" y="1510" width="366.97" height="60" as="geometry" />
        </mxCell>
        <mxCell id="GgeAHl5cq-EndFfnK4Qn-173" value="" style="edgeStyle=orthogonalEdgeStyle;rounded=0;orthogonalLoop=1;jettySize=auto;html=1;entryX=1;entryY=0.5;entryDx=0;entryDy=0;" parent="GgeAHl5cq-EndFfnK4Qn-106" source="GgeAHl5cq-EndFfnK4Qn-177" target="GgeAHl5cq-EndFfnK4Qn-180" edge="1">
          <mxGeometry relative="1" as="geometry">
            <mxPoint x="510.4599999999999" y="1650.0000000000005" as="targetPoint" />
          </mxGeometry>
        </mxCell>
        <mxCell id="GgeAHl5cq-EndFfnK4Qn-174" value="Yes" style="edgeLabel;html=1;align=center;verticalAlign=middle;resizable=0;points=[];" parent="GgeAHl5cq-EndFfnK4Qn-173" vertex="1" connectable="0">
          <mxGeometry x="-0.0143" y="-1" relative="1" as="geometry">
            <mxPoint as="offset" />
          </mxGeometry>
        </mxCell>
        <mxCell id="GgeAHl5cq-EndFfnK4Qn-175" value="" style="edgeStyle=orthogonalEdgeStyle;rounded=0;orthogonalLoop=1;jettySize=auto;html=1;" parent="GgeAHl5cq-EndFfnK4Qn-106" source="GgeAHl5cq-EndFfnK4Qn-177" target="GgeAHl5cq-EndFfnK4Qn-179" edge="1">
          <mxGeometry relative="1" as="geometry" />
        </mxCell>
        <mxCell id="GgeAHl5cq-EndFfnK4Qn-176" value="No" style="edgeLabel;html=1;align=center;verticalAlign=middle;resizable=0;points=[];" parent="GgeAHl5cq-EndFfnK4Qn-175" vertex="1" connectable="0">
          <mxGeometry x="-0.0404" y="2" relative="1" as="geometry">
            <mxPoint as="offset" />
          </mxGeometry>
        </mxCell>
        <mxCell id="GgeAHl5cq-EndFfnK4Qn-177" value="Event Name contains the wording of any item in the Drop list" style="rhombus;whiteSpace=wrap;html=1;rounded=1;fillColor=#e1d5e7;strokeColor=#9673a6;" parent="GgeAHl5cq-EndFfnK4Qn-106" vertex="1">
          <mxGeometry x="604.4399999999999" y="1610" width="302.04" height="80" as="geometry" />
        </mxCell>
        <mxCell id="GgeAHl5cq-EndFfnK4Qn-213" value="" style="edgeStyle=orthogonalEdgeStyle;rounded=0;orthogonalLoop=1;jettySize=auto;html=1;" parent="GgeAHl5cq-EndFfnK4Qn-106" source="GgeAHl5cq-EndFfnK4Qn-179" target="GgeAHl5cq-EndFfnK4Qn-212" edge="1">
          <mxGeometry relative="1" as="geometry" />
        </mxCell>
        <mxCell id="GgeAHl5cq-EndFfnK4Qn-179" value="Retrieve info from &lt;b&gt;Enrolled Plans section of Current Period from Benefit Summary on EN&lt;/b&gt;" style="whiteSpace=wrap;html=1;rounded=1;" parent="GgeAHl5cq-EndFfnK4Qn-106" vertex="1">
          <mxGeometry x="962.34" y="1620" width="185.31" height="60" as="geometry" />
        </mxCell>
        <mxCell id="GgeAHl5cq-EndFfnK4Qn-182" value="" style="edgeStyle=orthogonalEdgeStyle;rounded=0;orthogonalLoop=1;jettySize=auto;html=1;" parent="GgeAHl5cq-EndFfnK4Qn-106" source="GgeAHl5cq-EndFfnK4Qn-180" target="GgeAHl5cq-EndFfnK4Qn-181" edge="1">
          <mxGeometry relative="1" as="geometry" />
        </mxCell>
        <mxCell id="GgeAHl5cq-EndFfnK4Qn-180" value="Check if any plan type from &lt;b&gt;Ended Coverage section on Benefit Summary&lt;/b&gt; is included in Event Name" style="rounded=1;whiteSpace=wrap;html=1;" parent="GgeAHl5cq-EndFfnK4Qn-106" vertex="1">
          <mxGeometry x="351.52" y="1620" width="190" height="60" as="geometry" />
        </mxCell>
        <mxCell id="GgeAHl5cq-EndFfnK4Qn-206" value="" style="edgeStyle=orthogonalEdgeStyle;rounded=0;orthogonalLoop=1;jettySize=auto;html=1;" parent="GgeAHl5cq-EndFfnK4Qn-106" source="GgeAHl5cq-EndFfnK4Qn-181" target="GgeAHl5cq-EndFfnK4Qn-205" edge="1">
          <mxGeometry relative="1" as="geometry" />
        </mxCell>
        <mxCell id="GgeAHl5cq-EndFfnK4Qn-207" value="Yes" style="edgeLabel;html=1;align=center;verticalAlign=middle;resizable=0;points=[];" parent="GgeAHl5cq-EndFfnK4Qn-206" vertex="1" connectable="0">
          <mxGeometry x="0.082" y="-2" relative="1" as="geometry">
            <mxPoint as="offset" />
          </mxGeometry>
        </mxCell>
        <mxCell id="GgeAHl5cq-EndFfnK4Qn-209" value="" style="edgeStyle=orthogonalEdgeStyle;rounded=0;orthogonalLoop=1;jettySize=auto;html=1;" parent="GgeAHl5cq-EndFfnK4Qn-106" source="GgeAHl5cq-EndFfnK4Qn-181" target="GgeAHl5cq-EndFfnK4Qn-208" edge="1">
          <mxGeometry relative="1" as="geometry" />
        </mxCell>
        <mxCell id="GgeAHl5cq-EndFfnK4Qn-211" value="No" style="edgeLabel;html=1;align=center;verticalAlign=middle;resizable=0;points=[];" parent="GgeAHl5cq-EndFfnK4Qn-209" vertex="1" connectable="0">
          <mxGeometry x="-0.1087" relative="1" as="geometry">
            <mxPoint as="offset" />
          </mxGeometry>
        </mxCell>
        <mxCell id="GgeAHl5cq-EndFfnK4Qn-181" value="is included in Event Name" style="rhombus;whiteSpace=wrap;html=1;rounded=1;fillColor=#e1d5e7;strokeColor=#9673a6;" parent="GgeAHl5cq-EndFfnK4Qn-106" vertex="1">
          <mxGeometry x="406.5199999999999" y="1710" width="80" height="80" as="geometry" />
        </mxCell>
        <mxCell id="GgeAHl5cq-EndFfnK4Qn-205" value="&lt;ul&gt;&lt;li&gt;fill in corresponding Plan Name to Work Log&lt;/li&gt;&lt;li&gt;leave Carrier column blank (info not available in Ended Coverage section)&lt;/li&gt;&lt;/ul&gt;" style="whiteSpace=wrap;html=1;rounded=1;align=left;" parent="GgeAHl5cq-EndFfnK4Qn-106" vertex="1">
          <mxGeometry x="195" y="1665" width="141.52" height="170" as="geometry" />
        </mxCell>
        <mxCell id="GgeAHl5cq-EndFfnK4Qn-208" value="leave Plan Name and Carrier column blank" style="whiteSpace=wrap;html=1;rounded=1;" parent="GgeAHl5cq-EndFfnK4Qn-106" vertex="1">
          <mxGeometry x="525.4599999999999" y="1720" width="113.94" height="60" as="geometry" />
        </mxCell>
        <mxCell id="GgeAHl5cq-EndFfnK4Qn-215" value="" style="edgeStyle=orthogonalEdgeStyle;rounded=0;orthogonalLoop=1;jettySize=auto;html=1;" parent="GgeAHl5cq-EndFfnK4Qn-106" source="GgeAHl5cq-EndFfnK4Qn-212" target="GgeAHl5cq-EndFfnK4Qn-221" edge="1">
          <mxGeometry relative="1" as="geometry">
            <mxPoint x="906.4800000000004" y="1755" as="targetPoint" />
          </mxGeometry>
        </mxCell>
        <mxCell id="GgeAHl5cq-EndFfnK4Qn-216" value="Yes" style="edgeLabel;html=1;align=center;verticalAlign=middle;resizable=0;points=[];" parent="GgeAHl5cq-EndFfnK4Qn-215" vertex="1" connectable="0">
          <mxGeometry x="-0.1839" y="1" relative="1" as="geometry">
            <mxPoint as="offset" />
          </mxGeometry>
        </mxCell>
        <mxCell id="GgeAHl5cq-EndFfnK4Qn-223" value="" style="edgeStyle=orthogonalEdgeStyle;rounded=0;orthogonalLoop=1;jettySize=auto;html=1;entryX=0.5;entryY=0;entryDx=0;entryDy=0;exitX=1;exitY=0.5;exitDx=0;exitDy=0;" parent="GgeAHl5cq-EndFfnK4Qn-106" source="GgeAHl5cq-EndFfnK4Qn-212" target="GgeAHl5cq-EndFfnK4Qn-222" edge="1">
          <mxGeometry relative="1" as="geometry" />
        </mxCell>
        <mxCell id="GgeAHl5cq-EndFfnK4Qn-224" value="No" style="edgeLabel;html=1;align=center;verticalAlign=middle;resizable=0;points=[];" parent="GgeAHl5cq-EndFfnK4Qn-223" vertex="1" connectable="0">
          <mxGeometry x="-0.0225" y="1" relative="1" as="geometry">
            <mxPoint as="offset" />
          </mxGeometry>
        </mxCell>
        <mxCell id="GgeAHl5cq-EndFfnK4Qn-212" value="Check if &quot;Not Enrolled In Any Plans&quot; is listed under Enrolled Plans section" style="rhombus;whiteSpace=wrap;html=1;rounded=1;fillColor=#e1d5e7;strokeColor=#9673a6;" parent="GgeAHl5cq-EndFfnK4Qn-106" vertex="1">
          <mxGeometry x="968" y="1725" width="173.98" height="125" as="geometry" />
        </mxCell>
        <mxCell id="GgeAHl5cq-EndFfnK4Qn-221" value="&lt;div&gt;update below in Work Log:&lt;/div&gt;&lt;div&gt;&lt;b&gt;Task Type&lt;/b&gt;: &quot;N/A&quot;&lt;/div&gt;&lt;div&gt;&lt;b&gt;Carrier:&lt;/b&gt; &quot;N/A&quot;&lt;/div&gt;&lt;div&gt;&lt;b&gt;Reason for Enrollment / Termination&lt;/b&gt;: &quot;N/A&quot;&lt;/div&gt;&lt;div&gt;&lt;b&gt;Plan Name&lt;/b&gt;: &quot;N/A&quot;&lt;/div&gt;&lt;div&gt;&lt;b&gt;Reason for No Need to Process:&lt;/b&gt; &quot;EE didn&#39;t enroll in any plans&quot;&lt;/div&gt;" style="shape=hexagon;perimeter=hexagonPerimeter2;whiteSpace=wrap;html=1;fixedSize=1;" parent="GgeAHl5cq-EndFfnK4Qn-106" vertex="1">
          <mxGeometry x="740.4599999999999" y="1700" width="166.02" height="180" as="geometry" />
        </mxCell>
        <mxCell id="GgeAHl5cq-EndFfnK4Qn-226" value="" style="edgeStyle=orthogonalEdgeStyle;rounded=0;orthogonalLoop=1;jettySize=auto;html=1;" parent="GgeAHl5cq-EndFfnK4Qn-106" source="GgeAHl5cq-EndFfnK4Qn-222" target="GgeAHl5cq-EndFfnK4Qn-225" edge="1">
          <mxGeometry relative="1" as="geometry" />
        </mxCell>
        <mxCell id="GgeAHl5cq-EndFfnK4Qn-227" value="Yes" style="edgeLabel;html=1;align=center;verticalAlign=middle;resizable=0;points=[];" parent="GgeAHl5cq-EndFfnK4Qn-226" vertex="1" connectable="0">
          <mxGeometry x="-0.2424" relative="1" as="geometry">
            <mxPoint as="offset" />
          </mxGeometry>
        </mxCell>
        <mxCell id="GgeAHl5cq-EndFfnK4Qn-231" value="" style="edgeStyle=orthogonalEdgeStyle;rounded=0;orthogonalLoop=1;jettySize=auto;html=1;" parent="GgeAHl5cq-EndFfnK4Qn-106" source="GgeAHl5cq-EndFfnK4Qn-222" target="GgeAHl5cq-EndFfnK4Qn-230" edge="1">
          <mxGeometry relative="1" as="geometry" />
        </mxCell>
        <mxCell id="GgeAHl5cq-EndFfnK4Qn-232" value="No" style="edgeLabel;html=1;align=center;verticalAlign=middle;resizable=0;points=[];" parent="GgeAHl5cq-EndFfnK4Qn-231" vertex="1" connectable="0">
          <mxGeometry x="-0.2736" relative="1" as="geometry">
            <mxPoint as="offset" />
          </mxGeometry>
        </mxCell>
        <mxCell id="GgeAHl5cq-EndFfnK4Qn-222" value="check if any plan type from Enrolled Plans section is included in Event Name" style="rhombus;whiteSpace=wrap;html=1;fillColor=#e1d5e7;strokeColor=#9673a6;" parent="GgeAHl5cq-EndFfnK4Qn-106" vertex="1">
          <mxGeometry x="1125.46" y="1865" width="225" height="110" as="geometry" />
        </mxCell>
        <mxCell id="GgeAHl5cq-EndFfnK4Qn-225" value="&lt;ul&gt;&lt;li&gt;fill in corresponding Plan Name to Work Log;&amp;nbsp;&lt;/li&gt;&lt;li&gt;fill in Carrier to Work Log per mapping between Carrier and Carrier in EN in Config&lt;/li&gt;&lt;/ul&gt;" style="rounded=1;whiteSpace=wrap;html=1;align=left;" parent="GgeAHl5cq-EndFfnK4Qn-106" vertex="1">
          <mxGeometry x="900" y="1857.5" width="182.34" height="125" as="geometry" />
        </mxCell>
        <mxCell id="GgeAHl5cq-EndFfnK4Qn-230" value="leave Plan Name and Carrier column blank" style="rounded=1;whiteSpace=wrap;html=1;" parent="GgeAHl5cq-EndFfnK4Qn-106" vertex="1">
          <mxGeometry x="1395.46" y="1890" width="120" height="60" as="geometry" />
        </mxCell>
        <mxCell id="GgeAHl5cq-EndFfnK4Qn-238" style="edgeStyle=orthogonalEdgeStyle;rounded=0;orthogonalLoop=1;jettySize=auto;html=1;" parent="GgeAHl5cq-EndFfnK4Qn-106" source="GgeAHl5cq-EndFfnK4Qn-233" target="GgeAHl5cq-EndFfnK4Qn-236" edge="1">
          <mxGeometry relative="1" as="geometry" />
        </mxCell>
        <mxCell id="GgeAHl5cq-EndFfnK4Qn-233" value="Update Formula Driven Column" style="rounded=1;whiteSpace=wrap;html=1;fillColor=#dae8fc;strokeColor=#6c8ebf;" parent="GgeAHl5cq-EndFfnK4Qn-106" vertex="1">
          <mxGeometry x="795.0000000000001" y="2060" width="120" height="60" as="geometry" />
        </mxCell>
        <mxCell id="GgeAHl5cq-EndFfnK4Qn-240" value="" style="edgeStyle=orthogonalEdgeStyle;rounded=0;orthogonalLoop=1;jettySize=auto;html=1;" parent="GgeAHl5cq-EndFfnK4Qn-106" source="GgeAHl5cq-EndFfnK4Qn-234" target="GgeAHl5cq-EndFfnK4Qn-239" edge="1">
          <mxGeometry relative="1" as="geometry" />
        </mxCell>
        <mxCell id="GgeAHl5cq-EndFfnK4Qn-234" value="Fill in pre-defined formula for each request item for below columns (formula listed in row 7 of Work Log)" style="rounded=1;whiteSpace=wrap;html=1;" parent="GgeAHl5cq-EndFfnK4Qn-106" vertex="1">
          <mxGeometry x="658.9399999999999" y="2170" width="340" height="60" as="geometry" />
        </mxCell>
        <mxCell id="GgeAHl5cq-EndFfnK4Qn-239" value="&lt;div&gt;&lt;b&gt;Rec Date&lt;/b&gt;&lt;/div&gt;&lt;div&gt;&lt;b&gt;Process Method&lt;/b&gt;&lt;/div&gt;&lt;div&gt;&lt;b&gt;Email Sent to Carrier or Change on Carrier Website Completed?&lt;/b&gt;&lt;/div&gt;" style="shape=hexagon;perimeter=hexagonPerimeter2;whiteSpace=wrap;html=1;fixedSize=1;rounded=1;size=21.059999999999945;" parent="GgeAHl5cq-EndFfnK4Qn-106" vertex="1">
          <mxGeometry x="595.9100000000001" y="2280" width="466.06" height="80" as="geometry" />
        </mxCell>
        <mxCell id="GgeAHl5cq-EndFfnK4Qn-242" value="&lt;div&gt;Backup Work Log&lt;/div&gt;&lt;div&gt;Save the original Work Log in designated folder&lt;/div&gt;" style="rounded=1;whiteSpace=wrap;html=1;fillColor=#dae8fc;strokeColor=#6c8ebf;" parent="GgeAHl5cq-EndFfnK4Qn-106" vertex="1">
          <mxGeometry x="700.46" y="2470" width="310" height="60" as="geometry" />
        </mxCell>
        <mxCell id="EwP7op--CkbYztGHFEWx-5" value="&lt;div&gt;Workflow Requirement Completed&lt;/div&gt;&lt;div&gt;Employee Hired&lt;/div&gt;" style="shape=hexagon;perimeter=hexagonPerimeter2;whiteSpace=wrap;html=1;fixedSize=1;rounded=1;fillColor=#d5e8d4;strokeColor=#82b366;" parent="GgeAHl5cq-EndFfnK4Qn-106" vertex="1">
          <mxGeometry x="1027.88" y="900" width="222.12" height="80" as="geometry" />
        </mxCell>
        <mxCell id="EwP7op--CkbYztGHFEWx-7" value="&lt;div&gt;Drop Employee Coverage&lt;/div&gt;&lt;div&gt;Employee Class Structure Change (from full-time to part-time)&lt;/div&gt;&lt;div&gt;Termination&lt;/div&gt;&lt;div&gt;Employee Terminated&lt;/div&gt;&lt;div&gt;Employee Eligible for Medicare&lt;/div&gt;&lt;div&gt;Enrollment Ended&lt;/div&gt;" style="shape=hexagon;perimeter=hexagonPerimeter2;whiteSpace=wrap;html=1;fixedSize=1;rounded=1;fillColor=#d5e8d4;strokeColor=#82b366;" parent="GgeAHl5cq-EndFfnK4Qn-106" vertex="1">
          <mxGeometry x="951.97" y="1395" width="398.49" height="90" as="geometry" />
        </mxCell>
        <mxCell id="GgeAHl5cq-EndFfnK4Qn-256" style="edgeStyle=orthogonalEdgeStyle;rounded=0;orthogonalLoop=1;jettySize=auto;html=1;" parent="1" source="GgeAHl5cq-EndFfnK4Qn-253" target="GgeAHl5cq-EndFfnK4Qn-106" edge="1">
          <mxGeometry relative="1" as="geometry" />
        </mxCell>
        <mxCell id="GgeAHl5cq-EndFfnK4Qn-253" value="Retrieve Info Used by Team to Locate Task" style="swimlane;startSize=20;horizontal=1;containerType=tree;fontSize=21;labelBackgroundColor=#0008e6;fontColor=#ffffff;" parent="1" vertex="1">
          <mxGeometry x="-410" y="130" width="1840" height="1620" as="geometry" />
        </mxCell>
        <mxCell id="GgeAHl5cq-EndFfnK4Qn-3" value="&lt;p style=&quot;line-height: 90%; margin-top: 0pt; margin-bottom: 5.04pt; margin-left: 0in; text-indent: 0in;&quot;&gt;Retrieve Requests Received via EN Wall Notifications&lt;br&gt;&lt;/p&gt;" style="whiteSpace=wrap;html=1;rounded=1;fontStyle=0;verticalAlign=middle;fillColor=#dae8fc;strokeColor=#6c8ebf;" parent="GgeAHl5cq-EndFfnK4Qn-253" vertex="1">
          <mxGeometry x="835.63" y="30" width="215" height="40" as="geometry" />
        </mxCell>
        <mxCell id="wXiFjKmtYQNaFBfWxqvg-1" value="QC - Validate Request Items &amp; Reconcile Work Completed" style="swimlane;startSize=20;horizontal=1;containerType=tree;fontSize=21;labelBackgroundColor=#0008e6;fontColor=#ffffff;align=center;" vertex="1" parent="1">
          <mxGeometry x="1710" y="160" width="2080" height="3780" as="geometry" />
        </mxCell>
        <mxCell id="wXiFjKmtYQNaFBfWxqvg-179" value="" style="rounded=0;whiteSpace=wrap;html=1;fillColor=#fff2cc;strokeColor=#d6b656;" vertex="1" parent="wXiFjKmtYQNaFBfWxqvg-1">
          <mxGeometry x="311.25" y="2410" width="1645" height="230" as="geometry" />
        </mxCell>
        <mxCell id="wXiFjKmtYQNaFBfWxqvg-2" style="edgeStyle=orthogonalEdgeStyle;rounded=0;orthogonalLoop=1;jettySize=auto;html=1;entryX=0.5;entryY=0;entryDx=0;entryDy=0;" edge="1" parent="wXiFjKmtYQNaFBfWxqvg-1" source="wXiFjKmtYQNaFBfWxqvg-3" target="wXiFjKmtYQNaFBfWxqvg-14">
          <mxGeometry relative="1" as="geometry" />
        </mxCell>
        <mxCell id="wXiFjKmtYQNaFBfWxqvg-3" value="" style="rounded=0;whiteSpace=wrap;html=1;fillColor=#fff2cc;strokeColor=#d6b656;" vertex="1" parent="wXiFjKmtYQNaFBfWxqvg-1">
          <mxGeometry x="815" y="190" width="435" height="220" as="geometry" />
        </mxCell>
        <mxCell id="wXiFjKmtYQNaFBfWxqvg-4" style="edgeStyle=orthogonalEdgeStyle;rounded=0;orthogonalLoop=1;jettySize=auto;html=1;entryX=0.5;entryY=0;entryDx=0;entryDy=0;" edge="1" parent="wXiFjKmtYQNaFBfWxqvg-1" source="wXiFjKmtYQNaFBfWxqvg-5" target="wXiFjKmtYQNaFBfWxqvg-3">
          <mxGeometry relative="1" as="geometry" />
        </mxCell>
        <mxCell id="wXiFjKmtYQNaFBfWxqvg-5" value="Trigger QC Automation" style="rounded=0;whiteSpace=wrap;html=1;fillColor=#dae8fc;strokeColor=#6c8ebf;" vertex="1" parent="wXiFjKmtYQNaFBfWxqvg-1">
          <mxGeometry x="827.5" y="90" width="410" height="60" as="geometry" />
        </mxCell>
        <mxCell id="wXiFjKmtYQNaFBfWxqvg-6" value="Check Work Log every half an hour" style="rounded=1;whiteSpace=wrap;html=1;" vertex="1" parent="wXiFjKmtYQNaFBfWxqvg-1">
          <mxGeometry x="835" y="220" width="182.5" height="40" as="geometry" />
        </mxCell>
        <mxCell id="wXiFjKmtYQNaFBfWxqvg-7" value="" style="edgeStyle=orthogonalEdgeStyle;rounded=0;orthogonalLoop=1;jettySize=auto;html=1;" edge="1" parent="wXiFjKmtYQNaFBfWxqvg-1" source="wXiFjKmtYQNaFBfWxqvg-6" target="wXiFjKmtYQNaFBfWxqvg-8">
          <mxGeometry relative="1" as="geometry" />
        </mxCell>
        <mxCell id="wXiFjKmtYQNaFBfWxqvg-45" style="edgeStyle=orthogonalEdgeStyle;rounded=0;orthogonalLoop=1;jettySize=auto;html=1;entryX=0;entryY=0.5;entryDx=0;entryDy=0;" edge="1" parent="wXiFjKmtYQNaFBfWxqvg-1" source="wXiFjKmtYQNaFBfWxqvg-8" target="wXiFjKmtYQNaFBfWxqvg-44">
          <mxGeometry relative="1" as="geometry" />
        </mxCell>
        <mxCell id="wXiFjKmtYQNaFBfWxqvg-8" value="Triger QC automation for each request item when meet both criteria:" style="rounded=1;whiteSpace=wrap;html=1;" vertex="1" parent="wXiFjKmtYQNaFBfWxqvg-1">
          <mxGeometry x="835" y="290" width="182.5" height="40" as="geometry" />
        </mxCell>
        <mxCell id="wXiFjKmtYQNaFBfWxqvg-11" style="edgeStyle=orthogonalEdgeStyle;rounded=0;orthogonalLoop=1;jettySize=auto;html=1;entryX=0.5;entryY=0;entryDx=0;entryDy=0;" edge="1" parent="wXiFjKmtYQNaFBfWxqvg-1" source="wXiFjKmtYQNaFBfWxqvg-12" target="wXiFjKmtYQNaFBfWxqvg-48">
          <mxGeometry relative="1" as="geometry">
            <mxPoint x="1032.5" y="900" as="targetPoint" />
          </mxGeometry>
        </mxCell>
        <mxCell id="wXiFjKmtYQNaFBfWxqvg-12" value="" style="rounded=0;whiteSpace=wrap;html=1;fillColor=#fff2cc;strokeColor=#d6b656;" vertex="1" parent="wXiFjKmtYQNaFBfWxqvg-1">
          <mxGeometry x="797.5" y="570" width="470" height="300" as="geometry" />
        </mxCell>
        <mxCell id="wXiFjKmtYQNaFBfWxqvg-13" style="edgeStyle=orthogonalEdgeStyle;rounded=0;orthogonalLoop=1;jettySize=auto;html=1;entryX=0.5;entryY=0;entryDx=0;entryDy=0;" edge="1" parent="wXiFjKmtYQNaFBfWxqvg-1" source="wXiFjKmtYQNaFBfWxqvg-14" target="wXiFjKmtYQNaFBfWxqvg-12">
          <mxGeometry relative="1" as="geometry" />
        </mxCell>
        <mxCell id="wXiFjKmtYQNaFBfWxqvg-14" value="Compare Info Used to Locate Task in Current Work Log vs. Original Work Log" style="rounded=0;whiteSpace=wrap;html=1;fillColor=#dae8fc;strokeColor=#6c8ebf;" vertex="1" parent="wXiFjKmtYQNaFBfWxqvg-1">
          <mxGeometry x="827.5" y="470" width="410" height="60" as="geometry" />
        </mxCell>
        <mxCell id="wXiFjKmtYQNaFBfWxqvg-15" value="&amp;nbsp;Locate the corresponding request item in backup Work Log by searching the same row and additional 5 upper and lower rows in backup Work Log" style="rounded=1;whiteSpace=wrap;html=1;" vertex="1" parent="wXiFjKmtYQNaFBfWxqvg-1">
          <mxGeometry x="865" y="600" width="330" height="100" as="geometry" />
        </mxCell>
        <mxCell id="wXiFjKmtYQNaFBfWxqvg-76" style="edgeStyle=orthogonalEdgeStyle;rounded=0;orthogonalLoop=1;jettySize=auto;html=1;entryX=0.5;entryY=0;entryDx=0;entryDy=0;" edge="1" parent="wXiFjKmtYQNaFBfWxqvg-1" source="wXiFjKmtYQNaFBfWxqvg-26" target="wXiFjKmtYQNaFBfWxqvg-73">
          <mxGeometry relative="1" as="geometry" />
        </mxCell>
        <mxCell id="wXiFjKmtYQNaFBfWxqvg-26" value="" style="rounded=0;whiteSpace=wrap;html=1;fillColor=#fff2cc;strokeColor=#d6b656;" vertex="1" parent="wXiFjKmtYQNaFBfWxqvg-1">
          <mxGeometry x="310" y="1010" width="400" height="190" as="geometry" />
        </mxCell>
        <mxCell id="wXiFjKmtYQNaFBfWxqvg-27" style="edgeStyle=orthogonalEdgeStyle;rounded=0;orthogonalLoop=1;jettySize=auto;html=1;entryX=0.5;entryY=0;entryDx=0;entryDy=0;" edge="1" parent="wXiFjKmtYQNaFBfWxqvg-1" source="wXiFjKmtYQNaFBfWxqvg-28" target="wXiFjKmtYQNaFBfWxqvg-26">
          <mxGeometry relative="1" as="geometry" />
        </mxCell>
        <mxCell id="wXiFjKmtYQNaFBfWxqvg-28" value="&lt;div&gt;Update Remove / New Added from Original Work Log? Column&lt;/div&gt;" style="rounded=0;whiteSpace=wrap;html=1;fillColor=#dae8fc;strokeColor=#6c8ebf;" vertex="1" parent="wXiFjKmtYQNaFBfWxqvg-1">
          <mxGeometry x="305" y="925" width="410" height="60" as="geometry" />
        </mxCell>
        <mxCell id="wXiFjKmtYQNaFBfWxqvg-36" value="&lt;b&gt;Remove / Newly Added from Original Work Log column:&lt;/b&gt; &quot;No&quot;" style="rounded=1;whiteSpace=wrap;html=1;" vertex="1" parent="wXiFjKmtYQNaFBfWxqvg-1">
          <mxGeometry x="335" y="1020" width="350" height="60" as="geometry" />
        </mxCell>
        <mxCell id="wXiFjKmtYQNaFBfWxqvg-44" value="&lt;ul&gt;&lt;li&gt;Auditor is not blank&lt;/li&gt;&lt;li&gt;Remove / Newly added from Original Work Log? is blank&lt;/li&gt;&lt;/ul&gt;" style="shape=hexagon;perimeter=hexagonPerimeter2;whiteSpace=wrap;html=1;fixedSize=1;align=left;" vertex="1" parent="wXiFjKmtYQNaFBfWxqvg-1">
          <mxGeometry x="1077.5" y="215" width="155" height="190" as="geometry" />
        </mxCell>
        <mxCell id="wXiFjKmtYQNaFBfWxqvg-46" value="" style="edgeStyle=orthogonalEdgeStyle;rounded=0;orthogonalLoop=1;jettySize=auto;html=1;" edge="1" source="wXiFjKmtYQNaFBfWxqvg-15" target="wXiFjKmtYQNaFBfWxqvg-47" parent="wXiFjKmtYQNaFBfWxqvg-1">
          <mxGeometry relative="1" as="geometry" />
        </mxCell>
        <mxCell id="wXiFjKmtYQNaFBfWxqvg-47" value="Check if can locate two request items with exactly same info from Employee ID in EN column to Change Date &amp;amp; Time column" style="rounded=1;whiteSpace=wrap;html=1;" vertex="1" parent="wXiFjKmtYQNaFBfWxqvg-1">
          <mxGeometry x="865" y="740" width="330" height="100" as="geometry" />
        </mxCell>
        <mxCell id="wXiFjKmtYQNaFBfWxqvg-69" style="edgeStyle=orthogonalEdgeStyle;rounded=0;orthogonalLoop=1;jettySize=auto;html=1;entryX=0;entryY=0.5;entryDx=0;entryDy=0;" edge="1" parent="wXiFjKmtYQNaFBfWxqvg-1" source="wXiFjKmtYQNaFBfWxqvg-48" target="wXiFjKmtYQNaFBfWxqvg-54">
          <mxGeometry relative="1" as="geometry" />
        </mxCell>
        <mxCell id="wXiFjKmtYQNaFBfWxqvg-70" value="No" style="edgeLabel;html=1;align=center;verticalAlign=middle;resizable=0;points=[];" vertex="1" connectable="0" parent="wXiFjKmtYQNaFBfWxqvg-69">
          <mxGeometry x="0.031" relative="1" as="geometry">
            <mxPoint as="offset" />
          </mxGeometry>
        </mxCell>
        <mxCell id="wXiFjKmtYQNaFBfWxqvg-48" value="can locate?" style="rhombus;whiteSpace=wrap;html=1;" vertex="1" parent="wXiFjKmtYQNaFBfWxqvg-1">
          <mxGeometry x="935" y="900" width="195" height="110" as="geometry" />
        </mxCell>
        <mxCell id="wXiFjKmtYQNaFBfWxqvg-49" style="edgeStyle=orthogonalEdgeStyle;rounded=0;orthogonalLoop=1;jettySize=auto;html=1;" edge="1" parent="wXiFjKmtYQNaFBfWxqvg-1" source="wXiFjKmtYQNaFBfWxqvg-48" target="wXiFjKmtYQNaFBfWxqvg-28">
          <mxGeometry relative="1" as="geometry">
            <mxPoint x="717.5" y="980" as="targetPoint" />
          </mxGeometry>
        </mxCell>
        <mxCell id="wXiFjKmtYQNaFBfWxqvg-50" value="Yes" style="edgeLabel;html=1;align=center;verticalAlign=middle;resizable=0;points=[];" vertex="1" connectable="0" parent="wXiFjKmtYQNaFBfWxqvg-49">
          <mxGeometry x="-0.2682" relative="1" as="geometry">
            <mxPoint as="offset" />
          </mxGeometry>
        </mxCell>
        <mxCell id="wXiFjKmtYQNaFBfWxqvg-102" style="edgeStyle=orthogonalEdgeStyle;rounded=0;orthogonalLoop=1;jettySize=auto;html=1;entryX=0.5;entryY=0;entryDx=0;entryDy=0;" edge="1" parent="wXiFjKmtYQNaFBfWxqvg-1" source="wXiFjKmtYQNaFBfWxqvg-54" target="wXiFjKmtYQNaFBfWxqvg-97">
          <mxGeometry relative="1" as="geometry" />
        </mxCell>
        <mxCell id="wXiFjKmtYQNaFBfWxqvg-54" value="&lt;div&gt;Update Remove / New Added from Original Work Log? Column&lt;/div&gt;" style="rounded=0;whiteSpace=wrap;html=1;fillColor=#dae8fc;strokeColor=#6c8ebf;" vertex="1" parent="wXiFjKmtYQNaFBfWxqvg-1">
          <mxGeometry x="1457.5" y="925" width="410" height="60" as="geometry" />
        </mxCell>
        <mxCell id="wXiFjKmtYQNaFBfWxqvg-71" value="" style="edgeStyle=orthogonalEdgeStyle;rounded=0;orthogonalLoop=1;jettySize=auto;html=1;" edge="1" source="wXiFjKmtYQNaFBfWxqvg-36" target="wXiFjKmtYQNaFBfWxqvg-72" parent="wXiFjKmtYQNaFBfWxqvg-1">
          <mxGeometry relative="1" as="geometry" />
        </mxCell>
        <mxCell id="wXiFjKmtYQNaFBfWxqvg-72" value="&lt;b&gt;under last column for corresponding row of backup Work Log:&amp;nbsp;&lt;/b&gt;&quot;Checked&quot;" style="rounded=1;whiteSpace=wrap;html=1;" vertex="1" parent="wXiFjKmtYQNaFBfWxqvg-1">
          <mxGeometry x="335" y="1120" width="350" height="60" as="geometry" />
        </mxCell>
        <mxCell id="wXiFjKmtYQNaFBfWxqvg-83" style="edgeStyle=orthogonalEdgeStyle;rounded=0;orthogonalLoop=1;jettySize=auto;html=1;entryX=0.5;entryY=0;entryDx=0;entryDy=0;" edge="1" parent="wXiFjKmtYQNaFBfWxqvg-1" source="wXiFjKmtYQNaFBfWxqvg-73" target="wXiFjKmtYQNaFBfWxqvg-77">
          <mxGeometry relative="1" as="geometry" />
        </mxCell>
        <mxCell id="wXiFjKmtYQNaFBfWxqvg-73" value="Identify Info Missing / Conflict from Original Work Log" style="rounded=0;whiteSpace=wrap;html=1;fillColor=#dae8fc;strokeColor=#6c8ebf;" vertex="1" parent="wXiFjKmtYQNaFBfWxqvg-1">
          <mxGeometry x="306.25" y="1240" width="407.5" height="60" as="geometry" />
        </mxCell>
        <mxCell id="wXiFjKmtYQNaFBfWxqvg-110" style="edgeStyle=orthogonalEdgeStyle;rounded=0;orthogonalLoop=1;jettySize=auto;html=1;entryX=0;entryY=0.5;entryDx=0;entryDy=0;" edge="1" parent="wXiFjKmtYQNaFBfWxqvg-1" source="wXiFjKmtYQNaFBfWxqvg-77" target="wXiFjKmtYQNaFBfWxqvg-109">
          <mxGeometry relative="1" as="geometry" />
        </mxCell>
        <mxCell id="wXiFjKmtYQNaFBfWxqvg-77" value="" style="rounded=0;whiteSpace=wrap;html=1;fillColor=#fff2cc;strokeColor=#d6b656;" vertex="1" parent="wXiFjKmtYQNaFBfWxqvg-1">
          <mxGeometry x="181.25" y="1330" width="657.5" height="340" as="geometry" />
        </mxCell>
        <mxCell id="wXiFjKmtYQNaFBfWxqvg-85" style="edgeStyle=orthogonalEdgeStyle;rounded=0;orthogonalLoop=1;jettySize=auto;html=1;" edge="1" parent="wXiFjKmtYQNaFBfWxqvg-1" source="wXiFjKmtYQNaFBfWxqvg-78" target="wXiFjKmtYQNaFBfWxqvg-84">
          <mxGeometry relative="1" as="geometry" />
        </mxCell>
        <mxCell id="wXiFjKmtYQNaFBfWxqvg-78" value="Compare info tracked from Task Type column&amp;nbsp;&lt;div&gt;to&amp;nbsp;&lt;/div&gt;&lt;div&gt;Reason for No Need to Process column&amp;nbsp;&lt;/div&gt;&lt;div&gt;&lt;span style=&quot;background-color: initial;&quot;&gt;in both Work Logs&lt;/span&gt;&lt;br&gt;&lt;/div&gt;" style="rounded=1;whiteSpace=wrap;html=1;" vertex="1" parent="wXiFjKmtYQNaFBfWxqvg-1">
          <mxGeometry x="335" y="1340" width="350" height="60" as="geometry" />
        </mxCell>
        <mxCell id="wXiFjKmtYQNaFBfWxqvg-92" style="edgeStyle=orthogonalEdgeStyle;rounded=0;orthogonalLoop=1;jettySize=auto;html=1;" edge="1" parent="wXiFjKmtYQNaFBfWxqvg-1" source="wXiFjKmtYQNaFBfWxqvg-84" target="wXiFjKmtYQNaFBfWxqvg-88">
          <mxGeometry relative="1" as="geometry">
            <Array as="points">
              <mxPoint x="308.5" y="1470" />
            </Array>
          </mxGeometry>
        </mxCell>
        <mxCell id="wXiFjKmtYQNaFBfWxqvg-93" value="Yes" style="edgeLabel;html=1;align=center;verticalAlign=middle;resizable=0;points=[];" vertex="1" connectable="0" parent="wXiFjKmtYQNaFBfWxqvg-92">
          <mxGeometry x="-0.168" y="-1" relative="1" as="geometry">
            <mxPoint as="offset" />
          </mxGeometry>
        </mxCell>
        <mxCell id="wXiFjKmtYQNaFBfWxqvg-95" style="edgeStyle=orthogonalEdgeStyle;rounded=0;orthogonalLoop=1;jettySize=auto;html=1;exitX=1;exitY=0.5;exitDx=0;exitDy=0;" edge="1" parent="wXiFjKmtYQNaFBfWxqvg-1" source="wXiFjKmtYQNaFBfWxqvg-84" target="wXiFjKmtYQNaFBfWxqvg-94">
          <mxGeometry relative="1" as="geometry" />
        </mxCell>
        <mxCell id="wXiFjKmtYQNaFBfWxqvg-96" value="No" style="edgeLabel;html=1;align=center;verticalAlign=middle;resizable=0;points=[];" vertex="1" connectable="0" parent="wXiFjKmtYQNaFBfWxqvg-95">
          <mxGeometry x="-0.3783" y="1" relative="1" as="geometry">
            <mxPoint as="offset" />
          </mxGeometry>
        </mxCell>
        <mxCell id="wXiFjKmtYQNaFBfWxqvg-84" value="any info missing/different in both work logs" style="rhombus;whiteSpace=wrap;html=1;" vertex="1" parent="wXiFjKmtYQNaFBfWxqvg-1">
          <mxGeometry x="396.25" y="1430" width="227.5" height="80" as="geometry" />
        </mxCell>
        <mxCell id="wXiFjKmtYQNaFBfWxqvg-88" value="&lt;div&gt;&lt;ul&gt;&lt;li&gt;&lt;b&gt;under Info Missing / Conflict with Original Work Log column&lt;/b&gt;:&amp;nbsp;&lt;span style=&quot;background-color: initial;&quot;&gt;corresponding column name&lt;/span&gt;&lt;span style=&quot;background-color: initial;&quot;&gt;&amp;nbsp;&lt;/span&gt;&lt;/li&gt;&lt;li&gt;copy info from original work log to Info From Original Work Log column, use &quot;;&quot; to separate multiple missing / different info&lt;/li&gt;&lt;/ul&gt;&lt;/div&gt;" style="rounded=1;whiteSpace=wrap;html=1;align=left;" vertex="1" parent="wXiFjKmtYQNaFBfWxqvg-1">
          <mxGeometry x="197.5" y="1520" width="222.5" height="130" as="geometry" />
        </mxCell>
        <mxCell id="wXiFjKmtYQNaFBfWxqvg-94" value="&lt;div&gt;&lt;ul&gt;&lt;li&gt;under Info Missing / Conflict with Original Work Log column:&amp;nbsp;&lt;span style=&quot;background-color: initial;&quot;&gt;&quot;No&quot;&lt;/span&gt;&lt;span style=&quot;background-color: initial;&quot;&gt;&amp;nbsp;&lt;/span&gt;&lt;/li&gt;&lt;li&gt;under Info From Original Work Log column:&amp;nbsp;&lt;span style=&quot;background-color: initial;&quot;&gt;&quot;N/A&quot;&lt;/span&gt;&lt;span style=&quot;background-color: initial;&quot;&gt;&amp;nbsp;&lt;/span&gt;&lt;/li&gt;&lt;/ul&gt;&lt;/div&gt;&lt;div&gt;&lt;br&gt;&lt;/div&gt;" style="rounded=1;whiteSpace=wrap;html=1;align=left;" vertex="1" parent="wXiFjKmtYQNaFBfWxqvg-1">
          <mxGeometry x="623.75" y="1525" width="195" height="120" as="geometry" />
        </mxCell>
        <mxCell id="wXiFjKmtYQNaFBfWxqvg-111" style="edgeStyle=orthogonalEdgeStyle;rounded=0;orthogonalLoop=1;jettySize=auto;html=1;entryX=1;entryY=0.5;entryDx=0;entryDy=0;" edge="1" parent="wXiFjKmtYQNaFBfWxqvg-1" source="wXiFjKmtYQNaFBfWxqvg-97" target="wXiFjKmtYQNaFBfWxqvg-109">
          <mxGeometry relative="1" as="geometry">
            <Array as="points">
              <mxPoint x="1662.5" y="1810" />
            </Array>
          </mxGeometry>
        </mxCell>
        <mxCell id="wXiFjKmtYQNaFBfWxqvg-97" value="" style="rounded=0;whiteSpace=wrap;html=1;fillColor=#fff2cc;strokeColor=#d6b656;" vertex="1" parent="wXiFjKmtYQNaFBfWxqvg-1">
          <mxGeometry x="1462.5" y="1020" width="400" height="190" as="geometry" />
        </mxCell>
        <mxCell id="wXiFjKmtYQNaFBfWxqvg-98" value="&lt;b&gt;Remove / Newly Added from Original Work Log column:&lt;/b&gt;&amp;nbsp;&quot;Newly Added&quot;" style="rounded=1;whiteSpace=wrap;html=1;" vertex="1" parent="wXiFjKmtYQNaFBfWxqvg-1">
          <mxGeometry x="1487.5" y="1030" width="350" height="60" as="geometry" />
        </mxCell>
        <mxCell id="wXiFjKmtYQNaFBfWxqvg-108" value="&lt;b&gt;&lt;font color=&quot;#ff3333&quot;&gt;TBD: For request items manually copied by SDU, mark one of them as NO and treat all others as newly added?&lt;/font&gt;&lt;/b&gt;" style="ellipse;whiteSpace=wrap;html=1;" vertex="1" parent="wXiFjKmtYQNaFBfWxqvg-1">
          <mxGeometry x="1487.5" y="1110" width="340" height="80" as="geometry" />
        </mxCell>
        <mxCell id="wXiFjKmtYQNaFBfWxqvg-125" style="edgeStyle=orthogonalEdgeStyle;rounded=0;orthogonalLoop=1;jettySize=auto;html=1;exitX=0.518;exitY=0.987;exitDx=0;exitDy=0;exitPerimeter=0;" edge="1" parent="wXiFjKmtYQNaFBfWxqvg-1" source="wXiFjKmtYQNaFBfWxqvg-109" target="wXiFjKmtYQNaFBfWxqvg-112">
          <mxGeometry relative="1" as="geometry">
            <mxPoint x="1258.833333333334" y="1960" as="sourcePoint" />
          </mxGeometry>
        </mxCell>
        <mxCell id="wXiFjKmtYQNaFBfWxqvg-109" value="&lt;div&gt;Identify Whether Request is Completed via Email / Online?&lt;/div&gt;&lt;div&gt;&lt;br&gt;&lt;/div&gt;" style="rounded=0;whiteSpace=wrap;html=1;fillColor=#dae8fc;strokeColor=#6c8ebf;align=center;verticalAlign=middle;" vertex="1" parent="wXiFjKmtYQNaFBfWxqvg-1">
          <mxGeometry x="838.75" y="1780" width="590" height="60" as="geometry" />
        </mxCell>
        <mxCell id="wXiFjKmtYQNaFBfWxqvg-152" style="edgeStyle=orthogonalEdgeStyle;rounded=0;orthogonalLoop=1;jettySize=auto;html=1;entryX=0.5;entryY=0;entryDx=0;entryDy=0;" edge="1" parent="wXiFjKmtYQNaFBfWxqvg-1" source="wXiFjKmtYQNaFBfWxqvg-112" target="wXiFjKmtYQNaFBfWxqvg-151">
          <mxGeometry relative="1" as="geometry" />
        </mxCell>
        <mxCell id="wXiFjKmtYQNaFBfWxqvg-112" value="" style="rounded=0;whiteSpace=wrap;html=1;fillColor=#fff2cc;strokeColor=#d6b656;" vertex="1" parent="wXiFjKmtYQNaFBfWxqvg-1">
          <mxGeometry x="326.25" y="1960" width="1630" height="340" as="geometry" />
        </mxCell>
        <mxCell id="wXiFjKmtYQNaFBfWxqvg-113" style="edgeStyle=orthogonalEdgeStyle;rounded=0;orthogonalLoop=1;jettySize=auto;html=1;" edge="1" source="wXiFjKmtYQNaFBfWxqvg-114" target="wXiFjKmtYQNaFBfWxqvg-119" parent="wXiFjKmtYQNaFBfWxqvg-1">
          <mxGeometry relative="1" as="geometry" />
        </mxCell>
        <mxCell id="wXiFjKmtYQNaFBfWxqvg-114" value="&lt;div&gt;Email to Carrier&lt;br&gt;&lt;/div&gt;" style="rounded=1;whiteSpace=wrap;html=1;" vertex="1" parent="wXiFjKmtYQNaFBfWxqvg-1">
          <mxGeometry x="728.1200000000001" y="2085" width="198.75" height="20" as="geometry" />
        </mxCell>
        <mxCell id="wXiFjKmtYQNaFBfWxqvg-115" style="edgeStyle=orthogonalEdgeStyle;rounded=0;orthogonalLoop=1;jettySize=auto;html=1;exitX=0;exitY=0.5;exitDx=0;exitDy=0;" edge="1" source="wXiFjKmtYQNaFBfWxqvg-119" target="wXiFjKmtYQNaFBfWxqvg-120" parent="wXiFjKmtYQNaFBfWxqvg-1">
          <mxGeometry relative="1" as="geometry">
            <Array as="points">
              <mxPoint x="892.25" y="2215" />
            </Array>
          </mxGeometry>
        </mxCell>
        <mxCell id="wXiFjKmtYQNaFBfWxqvg-116" value="Yes" style="edgeLabel;html=1;align=center;verticalAlign=middle;resizable=0;points=[];" vertex="1" connectable="0" parent="wXiFjKmtYQNaFBfWxqvg-115">
          <mxGeometry x="-0.168" y="-1" relative="1" as="geometry">
            <mxPoint as="offset" />
          </mxGeometry>
        </mxCell>
        <mxCell id="wXiFjKmtYQNaFBfWxqvg-117" style="edgeStyle=orthogonalEdgeStyle;rounded=0;orthogonalLoop=1;jettySize=auto;html=1;exitX=1;exitY=0.5;exitDx=0;exitDy=0;" edge="1" source="wXiFjKmtYQNaFBfWxqvg-119" target="wXiFjKmtYQNaFBfWxqvg-121" parent="wXiFjKmtYQNaFBfWxqvg-1">
          <mxGeometry relative="1" as="geometry" />
        </mxCell>
        <mxCell id="wXiFjKmtYQNaFBfWxqvg-118" value="No" style="edgeLabel;html=1;align=center;verticalAlign=middle;resizable=0;points=[];" vertex="1" connectable="0" parent="wXiFjKmtYQNaFBfWxqvg-117">
          <mxGeometry x="-0.3783" y="1" relative="1" as="geometry">
            <mxPoint as="offset" />
          </mxGeometry>
        </mxCell>
        <mxCell id="wXiFjKmtYQNaFBfWxqvg-119" value="can locate the email in Sent items with Email Subject: Group + EE name + Change Type (Enroll / Term / Change) and carrier&#39;s email address from To" style="rhombus;whiteSpace=wrap;html=1;" vertex="1" parent="wXiFjKmtYQNaFBfWxqvg-1">
          <mxGeometry x="676.25" y="2135" width="302.5" height="150" as="geometry" />
        </mxCell>
        <mxCell id="wXiFjKmtYQNaFBfWxqvg-120" value="&lt;ul&gt;&lt;li&gt;&lt;span style=&quot;font-weight: normal;&quot;&gt;mark &quot;Yes&quot;&lt;/span&gt;&lt;br&gt;&lt;/li&gt;&lt;/ul&gt;" style="rounded=1;whiteSpace=wrap;html=1;align=left;fontStyle=1" vertex="1" parent="wXiFjKmtYQNaFBfWxqvg-1">
          <mxGeometry x="406.25" y="2145" width="222.5" height="130" as="geometry" />
        </mxCell>
        <mxCell id="wXiFjKmtYQNaFBfWxqvg-121" value="&lt;div&gt;&lt;ul&gt;&lt;li&gt;mark &quot;No&quot;&lt;br&gt;&lt;/li&gt;&lt;/ul&gt;&lt;/div&gt;" style="rounded=1;whiteSpace=wrap;html=1;align=left;" vertex="1" parent="wXiFjKmtYQNaFBfWxqvg-1">
          <mxGeometry x="1016.25" y="2150" width="195" height="120" as="geometry" />
        </mxCell>
        <mxCell id="wXiFjKmtYQNaFBfWxqvg-139" value="&lt;div&gt;Online - Carrier Automated&lt;br&gt;&lt;/div&gt;" style="rounded=1;whiteSpace=wrap;html=1;" vertex="1" parent="wXiFjKmtYQNaFBfWxqvg-1">
          <mxGeometry x="1246.25" y="2085" width="198.75" height="30" as="geometry" />
        </mxCell>
        <mxCell id="wXiFjKmtYQNaFBfWxqvg-140" value="" style="edgeStyle=orthogonalEdgeStyle;rounded=0;orthogonalLoop=1;jettySize=auto;html=1;" edge="1" source="wXiFjKmtYQNaFBfWxqvg-139" target="wXiFjKmtYQNaFBfWxqvg-141" parent="wXiFjKmtYQNaFBfWxqvg-1">
          <mxGeometry relative="1" as="geometry" />
        </mxCell>
        <mxCell id="wXiFjKmtYQNaFBfWxqvg-141" value="&lt;div&gt;skip&lt;br&gt;&lt;/div&gt;" style="rounded=1;whiteSpace=wrap;html=1;" vertex="1" parent="wXiFjKmtYQNaFBfWxqvg-1">
          <mxGeometry x="1246.25" y="2145" width="198.75" height="20" as="geometry" />
        </mxCell>
        <mxCell id="wXiFjKmtYQNaFBfWxqvg-145" style="edgeStyle=orthogonalEdgeStyle;rounded=0;orthogonalLoop=1;jettySize=auto;html=1;" edge="1" parent="wXiFjKmtYQNaFBfWxqvg-1" source="wXiFjKmtYQNaFBfWxqvg-144" target="wXiFjKmtYQNaFBfWxqvg-114">
          <mxGeometry relative="1" as="geometry" />
        </mxCell>
        <mxCell id="wXiFjKmtYQNaFBfWxqvg-148" style="edgeStyle=orthogonalEdgeStyle;rounded=0;orthogonalLoop=1;jettySize=auto;html=1;" edge="1" parent="wXiFjKmtYQNaFBfWxqvg-1" source="wXiFjKmtYQNaFBfWxqvg-144" target="wXiFjKmtYQNaFBfWxqvg-139">
          <mxGeometry relative="1" as="geometry">
            <Array as="points">
              <mxPoint x="1345.25" y="2020" />
            </Array>
          </mxGeometry>
        </mxCell>
        <mxCell id="wXiFjKmtYQNaFBfWxqvg-150" style="edgeStyle=orthogonalEdgeStyle;rounded=0;orthogonalLoop=1;jettySize=auto;html=1;" edge="1" parent="wXiFjKmtYQNaFBfWxqvg-1" source="wXiFjKmtYQNaFBfWxqvg-144" target="wXiFjKmtYQNaFBfWxqvg-149">
          <mxGeometry relative="1" as="geometry" />
        </mxCell>
        <mxCell id="wXiFjKmtYQNaFBfWxqvg-144" value="get Process Method" style="rounded=1;whiteSpace=wrap;html=1;" vertex="1" parent="wXiFjKmtYQNaFBfWxqvg-1">
          <mxGeometry x="956.25" y="1975" width="120" height="60" as="geometry" />
        </mxCell>
        <mxCell id="wXiFjKmtYQNaFBfWxqvg-149" value="For the rest Process Method, fill in &quot;N/A&quot;" style="rounded=1;whiteSpace=wrap;html=1;" vertex="1" parent="wXiFjKmtYQNaFBfWxqvg-1">
          <mxGeometry x="1526.25" y="2090" width="120" height="60" as="geometry" />
        </mxCell>
        <mxCell id="wXiFjKmtYQNaFBfWxqvg-259" style="edgeStyle=orthogonalEdgeStyle;rounded=0;orthogonalLoop=1;jettySize=auto;html=1;" edge="1" parent="wXiFjKmtYQNaFBfWxqvg-1" source="wXiFjKmtYQNaFBfWxqvg-151" target="wXiFjKmtYQNaFBfWxqvg-179">
          <mxGeometry relative="1" as="geometry" />
        </mxCell>
        <mxCell id="wXiFjKmtYQNaFBfWxqvg-151" value="Locate Confirmation Document in Shared Folder" style="rounded=0;whiteSpace=wrap;html=1;fillColor=#dae8fc;strokeColor=#6c8ebf;" vertex="1" parent="wXiFjKmtYQNaFBfWxqvg-1">
          <mxGeometry x="941.25" y="2350" width="380" height="30" as="geometry" />
        </mxCell>
        <mxCell id="wXiFjKmtYQNaFBfWxqvg-258" style="edgeStyle=orthogonalEdgeStyle;rounded=0;orthogonalLoop=1;jettySize=auto;html=1;" edge="1" parent="wXiFjKmtYQNaFBfWxqvg-1" source="wXiFjKmtYQNaFBfWxqvg-180" target="wXiFjKmtYQNaFBfWxqvg-181">
          <mxGeometry relative="1" as="geometry" />
        </mxCell>
        <mxCell id="wXiFjKmtYQNaFBfWxqvg-180" value="Go to designated shared folder" style="rounded=1;whiteSpace=wrap;html=1;" vertex="1" parent="wXiFjKmtYQNaFBfWxqvg-1">
          <mxGeometry x="1016.25" y="2430" width="170" height="80" as="geometry" />
        </mxCell>
        <mxCell id="wXiFjKmtYQNaFBfWxqvg-263" style="edgeStyle=orthogonalEdgeStyle;rounded=0;orthogonalLoop=1;jettySize=auto;html=1;entryX=0.5;entryY=0;entryDx=0;entryDy=0;" edge="1" parent="wXiFjKmtYQNaFBfWxqvg-1" source="wXiFjKmtYQNaFBfWxqvg-181" target="wXiFjKmtYQNaFBfWxqvg-262">
          <mxGeometry relative="1" as="geometry" />
        </mxCell>
        <mxCell id="wXiFjKmtYQNaFBfWxqvg-181" value="Check if can locate confirmation document in folder per below rules for file name of Confirmation Doument:" style="rounded=1;whiteSpace=wrap;html=1;" vertex="1" parent="wXiFjKmtYQNaFBfWxqvg-1">
          <mxGeometry x="831.25" y="2550" width="540" height="60" as="geometry" />
        </mxCell>
        <mxCell id="wXiFjKmtYQNaFBfWxqvg-255" value="&lt;div&gt;&lt;ol&gt;&lt;li&gt;&lt;span style=&quot;background-color: initial;&quot;&gt;General rule: Effetie Date - EE Last Name, EE First Name Initial - Task Type Code - LOB Abbr - Carrier A,Carrier B - Proess Date, e.g., 3-24-24 - Doe, J - E - M,D - Aetna,BCBS - 3-26-24&lt;/span&gt;&lt;/li&gt;&lt;li&gt;&lt;span style=&quot;background-color: initial;&quot;&gt;If multiple effective date for different carriers, use &quot;,&quot; to separate&lt;/span&gt;&lt;/li&gt;&lt;li&gt;&lt;span style=&quot;background-color: initial;&quot;&gt;Effective Dateh and Process Date might have variation since processors not follow rules strictly, e.g., 3-24-24, 3-24-2024, 03-24-24, 03-24-2024&lt;/span&gt;&lt;/li&gt;&lt;/ol&gt;&lt;/div&gt;" style="rounded=1;whiteSpace=wrap;html=1;align=left;" vertex="1" parent="wXiFjKmtYQNaFBfWxqvg-1">
          <mxGeometry x="1378.75" y="2530" width="557.5" height="90" as="geometry" />
        </mxCell>
        <mxCell id="wXiFjKmtYQNaFBfWxqvg-269" style="edgeStyle=orthogonalEdgeStyle;rounded=0;orthogonalLoop=1;jettySize=auto;html=1;entryX=1;entryY=0.5;entryDx=0;entryDy=0;" edge="1" parent="wXiFjKmtYQNaFBfWxqvg-1" source="wXiFjKmtYQNaFBfWxqvg-262" target="wXiFjKmtYQNaFBfWxqvg-266">
          <mxGeometry relative="1" as="geometry" />
        </mxCell>
        <mxCell id="wXiFjKmtYQNaFBfWxqvg-270" value="Yes" style="edgeLabel;html=1;align=center;verticalAlign=middle;resizable=0;points=[];" vertex="1" connectable="0" parent="wXiFjKmtYQNaFBfWxqvg-269">
          <mxGeometry x="-0.1104" y="-4" relative="1" as="geometry">
            <mxPoint as="offset" />
          </mxGeometry>
        </mxCell>
        <mxCell id="wXiFjKmtYQNaFBfWxqvg-271" style="edgeStyle=orthogonalEdgeStyle;rounded=0;orthogonalLoop=1;jettySize=auto;html=1;entryX=0;entryY=0.5;entryDx=0;entryDy=0;" edge="1" parent="wXiFjKmtYQNaFBfWxqvg-1" source="wXiFjKmtYQNaFBfWxqvg-262" target="wXiFjKmtYQNaFBfWxqvg-268">
          <mxGeometry relative="1" as="geometry" />
        </mxCell>
        <mxCell id="wXiFjKmtYQNaFBfWxqvg-272" value="No" style="edgeLabel;html=1;align=center;verticalAlign=middle;resizable=0;points=[];" vertex="1" connectable="0" parent="wXiFjKmtYQNaFBfWxqvg-271">
          <mxGeometry x="-0.0517" y="1" relative="1" as="geometry">
            <mxPoint as="offset" />
          </mxGeometry>
        </mxCell>
        <mxCell id="wXiFjKmtYQNaFBfWxqvg-262" value="&lt;span style=&quot;font-size: 10pt; font-family: Calibri; font-weight: bold; vertical-align: baseline;&quot;&gt;Located？&lt;/span&gt;" style="rhombus;whiteSpace=wrap;html=1;" vertex="1" parent="wXiFjKmtYQNaFBfWxqvg-1">
          <mxGeometry x="1024.38" y="2690" width="153.75" height="146.43" as="geometry" />
        </mxCell>
        <mxCell id="wXiFjKmtYQNaFBfWxqvg-277" style="edgeStyle=orthogonalEdgeStyle;rounded=0;orthogonalLoop=1;jettySize=auto;html=1;" edge="1" parent="wXiFjKmtYQNaFBfWxqvg-1" source="wXiFjKmtYQNaFBfWxqvg-266" target="wXiFjKmtYQNaFBfWxqvg-276">
          <mxGeometry relative="1" as="geometry" />
        </mxCell>
        <mxCell id="wXiFjKmtYQNaFBfWxqvg-266" value="&lt;b&gt;Update Confirmation Document Located? Column：&lt;/b&gt;&amp;nbsp;&lt;span style=&quot;background-color: initial;&quot;&gt;&quot;Yes&quot;&amp;nbsp;&lt;/span&gt;" style="rounded=0;whiteSpace=wrap;html=1;" vertex="1" parent="wXiFjKmtYQNaFBfWxqvg-1">
          <mxGeometry x="628.75" y="2733.22" width="283.75" height="60" as="geometry" />
        </mxCell>
        <mxCell id="wXiFjKmtYQNaFBfWxqvg-268" value="&lt;b&gt;Update Confirmation Document Located? Column：&lt;/b&gt;&amp;nbsp;&lt;span style=&quot;background-color: initial;&quot;&gt;&quot;No&quot;&amp;nbsp;&lt;/span&gt;" style="rounded=0;whiteSpace=wrap;html=1;" vertex="1" parent="wXiFjKmtYQNaFBfWxqvg-1">
          <mxGeometry x="1267.5" y="2733.22" width="283.75" height="60" as="geometry" />
        </mxCell>
        <mxCell id="wXiFjKmtYQNaFBfWxqvg-279" style="edgeStyle=orthogonalEdgeStyle;rounded=0;orthogonalLoop=1;jettySize=auto;html=1;entryX=0.5;entryY=0;entryDx=0;entryDy=0;" edge="1" parent="wXiFjKmtYQNaFBfWxqvg-1" source="wXiFjKmtYQNaFBfWxqvg-276" target="wXiFjKmtYQNaFBfWxqvg-278">
          <mxGeometry relative="1" as="geometry" />
        </mxCell>
        <mxCell id="wXiFjKmtYQNaFBfWxqvg-276" value="Compare Info Extracted from Confirmation Document vs. Work Log" style="rounded=0;whiteSpace=wrap;html=1;fillColor=#dae8fc;strokeColor=#6c8ebf;" vertex="1" parent="wXiFjKmtYQNaFBfWxqvg-1">
          <mxGeometry x="631.25" y="2830" width="278.75" height="60" as="geometry" />
        </mxCell>
        <mxCell id="wXiFjKmtYQNaFBfWxqvg-304" style="edgeStyle=orthogonalEdgeStyle;rounded=0;orthogonalLoop=1;jettySize=auto;html=1;" edge="1" parent="wXiFjKmtYQNaFBfWxqvg-1" source="wXiFjKmtYQNaFBfWxqvg-278" target="wXiFjKmtYQNaFBfWxqvg-303">
          <mxGeometry relative="1" as="geometry" />
        </mxCell>
        <mxCell id="wXiFjKmtYQNaFBfWxqvg-278" value="" style="rounded=0;whiteSpace=wrap;html=1;fillColor=#fff2cc;strokeColor=#d6b656;" vertex="1" parent="wXiFjKmtYQNaFBfWxqvg-1">
          <mxGeometry x="150" y="2930" width="1241.25" height="300" as="geometry" />
        </mxCell>
        <mxCell id="wXiFjKmtYQNaFBfWxqvg-284" style="edgeStyle=orthogonalEdgeStyle;rounded=0;orthogonalLoop=1;jettySize=auto;html=1;entryX=0.5;entryY=0;entryDx=0;entryDy=0;" edge="1" parent="wXiFjKmtYQNaFBfWxqvg-1" source="wXiFjKmtYQNaFBfWxqvg-280" target="wXiFjKmtYQNaFBfWxqvg-281">
          <mxGeometry relative="1" as="geometry" />
        </mxCell>
        <mxCell id="wXiFjKmtYQNaFBfWxqvg-280" value="Extract all info from Confirmation Document" style="rounded=1;whiteSpace=wrap;html=1;" vertex="1" parent="wXiFjKmtYQNaFBfWxqvg-1">
          <mxGeometry x="698.1300000000001" y="2940" width="120" height="60" as="geometry" />
        </mxCell>
        <mxCell id="wXiFjKmtYQNaFBfWxqvg-283" style="edgeStyle=orthogonalEdgeStyle;rounded=0;orthogonalLoop=1;jettySize=auto;html=1;entryX=0;entryY=0.5;entryDx=0;entryDy=0;" edge="1" parent="wXiFjKmtYQNaFBfWxqvg-1" source="wXiFjKmtYQNaFBfWxqvg-281" target="wXiFjKmtYQNaFBfWxqvg-282">
          <mxGeometry relative="1" as="geometry" />
        </mxCell>
        <mxCell id="wXiFjKmtYQNaFBfWxqvg-288" style="edgeStyle=orthogonalEdgeStyle;rounded=0;orthogonalLoop=1;jettySize=auto;html=1;entryX=0.5;entryY=0;entryDx=0;entryDy=0;" edge="1" parent="wXiFjKmtYQNaFBfWxqvg-1" source="wXiFjKmtYQNaFBfWxqvg-281" target="wXiFjKmtYQNaFBfWxqvg-287">
          <mxGeometry relative="1" as="geometry" />
        </mxCell>
        <mxCell id="wXiFjKmtYQNaFBfWxqvg-281" value="Check if can locate below info from Work Log in exacted info:" style="rounded=1;whiteSpace=wrap;html=1;" vertex="1" parent="wXiFjKmtYQNaFBfWxqvg-1">
          <mxGeometry x="698.1300000000001" y="3020" width="120" height="60" as="geometry" />
        </mxCell>
        <mxCell id="wXiFjKmtYQNaFBfWxqvg-282" value="&lt;ul&gt;&lt;li&gt;Group&lt;/li&gt;&lt;li&gt;EE Name&lt;/li&gt;&lt;li&gt;Carrier&lt;/li&gt;&lt;/ul&gt;" style="shape=hexagon;perimeter=hexagonPerimeter2;whiteSpace=wrap;html=1;fixedSize=1;align=left;" vertex="1" parent="wXiFjKmtYQNaFBfWxqvg-1">
          <mxGeometry x="863.1300000000001" y="3010" width="121.25" height="80" as="geometry" />
        </mxCell>
        <mxCell id="wXiFjKmtYQNaFBfWxqvg-290" style="edgeStyle=orthogonalEdgeStyle;rounded=0;orthogonalLoop=1;jettySize=auto;html=1;" edge="1" parent="wXiFjKmtYQNaFBfWxqvg-1" source="wXiFjKmtYQNaFBfWxqvg-287" target="wXiFjKmtYQNaFBfWxqvg-289">
          <mxGeometry relative="1" as="geometry" />
        </mxCell>
        <mxCell id="wXiFjKmtYQNaFBfWxqvg-291" value="Yes" style="edgeLabel;html=1;align=center;verticalAlign=middle;resizable=0;points=[];" vertex="1" connectable="0" parent="wXiFjKmtYQNaFBfWxqvg-290">
          <mxGeometry x="-0.229" relative="1" as="geometry">
            <mxPoint as="offset" />
          </mxGeometry>
        </mxCell>
        <mxCell id="wXiFjKmtYQNaFBfWxqvg-297" style="edgeStyle=orthogonalEdgeStyle;rounded=0;orthogonalLoop=1;jettySize=auto;html=1;" edge="1" parent="wXiFjKmtYQNaFBfWxqvg-1" source="wXiFjKmtYQNaFBfWxqvg-287" target="wXiFjKmtYQNaFBfWxqvg-296">
          <mxGeometry relative="1" as="geometry" />
        </mxCell>
        <mxCell id="wXiFjKmtYQNaFBfWxqvg-298" value="No" style="edgeLabel;html=1;align=center;verticalAlign=middle;resizable=0;points=[];" vertex="1" connectable="0" parent="wXiFjKmtYQNaFBfWxqvg-297">
          <mxGeometry x="-0.1347" y="2" relative="1" as="geometry">
            <mxPoint as="offset" />
          </mxGeometry>
        </mxCell>
        <mxCell id="wXiFjKmtYQNaFBfWxqvg-287" value="locate?" style="rhombus;whiteSpace=wrap;html=1;" vertex="1" parent="wXiFjKmtYQNaFBfWxqvg-1">
          <mxGeometry x="718.1300000000001" y="3110" width="80" height="80" as="geometry" />
        </mxCell>
        <mxCell id="wXiFjKmtYQNaFBfWxqvg-295" style="edgeStyle=orthogonalEdgeStyle;rounded=0;orthogonalLoop=1;jettySize=auto;html=1;entryX=1;entryY=0.5;entryDx=0;entryDy=0;" edge="1" parent="wXiFjKmtYQNaFBfWxqvg-1" source="wXiFjKmtYQNaFBfWxqvg-289" target="wXiFjKmtYQNaFBfWxqvg-294">
          <mxGeometry relative="1" as="geometry" />
        </mxCell>
        <mxCell id="wXiFjKmtYQNaFBfWxqvg-289" value="update columns in Work Log for corresponding request item:" style="rounded=1;whiteSpace=wrap;html=1;" vertex="1" parent="wXiFjKmtYQNaFBfWxqvg-1">
          <mxGeometry x="458.1300000000001" y="3120" width="210" height="60" as="geometry" />
        </mxCell>
        <mxCell id="wXiFjKmtYQNaFBfWxqvg-294" value="&lt;div&gt;&lt;ul&gt;&lt;li&gt;Info Extracted from Confirmation Document Aligns with Work Log?: &quot;Yes&quot;&lt;/li&gt;&lt;li&gt;Info w/ Discrepancy Between Work Log and Confirmation Document: &quot;N/A&quot;&lt;/li&gt;&lt;/ul&gt;&lt;/div&gt;" style="shape=hexagon;perimeter=hexagonPerimeter2;whiteSpace=wrap;html=1;fixedSize=1;align=left;" vertex="1" parent="wXiFjKmtYQNaFBfWxqvg-1">
          <mxGeometry x="183.75" y="3090" width="236.25" height="120" as="geometry" />
        </mxCell>
        <mxCell id="wXiFjKmtYQNaFBfWxqvg-300" style="edgeStyle=orthogonalEdgeStyle;rounded=0;orthogonalLoop=1;jettySize=auto;html=1;" edge="1" parent="wXiFjKmtYQNaFBfWxqvg-1" source="wXiFjKmtYQNaFBfWxqvg-296" target="wXiFjKmtYQNaFBfWxqvg-299">
          <mxGeometry relative="1" as="geometry" />
        </mxCell>
        <mxCell id="wXiFjKmtYQNaFBfWxqvg-296" value="update columns in Work Log for corresponding request item:" style="rounded=1;whiteSpace=wrap;html=1;" vertex="1" parent="wXiFjKmtYQNaFBfWxqvg-1">
          <mxGeometry x="858.75" y="3120" width="188.75" height="60" as="geometry" />
        </mxCell>
        <mxCell id="wXiFjKmtYQNaFBfWxqvg-299" value="&lt;div&gt;&lt;ul&gt;&lt;li&gt;Info Extracted from Confirmation Document Aligns with Work Log?: fill in &quot;No&quot;&lt;/li&gt;&lt;li&gt;Info w/ Discrepancy Between Work Log and Confirmation Document: fill in the info that cannot be located&lt;/li&gt;&lt;li&gt;use &quot;;&quot; to separate&amp;nbsp;If multiple info cannot be located&lt;br&gt;&lt;/li&gt;&lt;/ul&gt;&lt;/div&gt;" style="shape=hexagon;perimeter=hexagonPerimeter2;whiteSpace=wrap;html=1;fixedSize=1;align=left;" vertex="1" parent="wXiFjKmtYQNaFBfWxqvg-1">
          <mxGeometry x="1095" y="3085" width="262.5" height="130" as="geometry" />
        </mxCell>
        <mxCell id="wXiFjKmtYQNaFBfWxqvg-312" style="edgeStyle=orthogonalEdgeStyle;rounded=0;orthogonalLoop=1;jettySize=auto;html=1;" edge="1" parent="wXiFjKmtYQNaFBfWxqvg-1" source="wXiFjKmtYQNaFBfWxqvg-303" target="wXiFjKmtYQNaFBfWxqvg-311">
          <mxGeometry relative="1" as="geometry" />
        </mxCell>
        <mxCell id="wXiFjKmtYQNaFBfWxqvg-303" value="Identify If QC Finished for All Request Items in Work Log" style="rounded=0;whiteSpace=wrap;html=1;fillColor=#dae8fc;strokeColor=#6c8ebf;" vertex="1" parent="wXiFjKmtYQNaFBfWxqvg-1">
          <mxGeometry x="587.5" y="3280" width="366.25" height="40" as="geometry" />
        </mxCell>
        <mxCell id="wXiFjKmtYQNaFBfWxqvg-322" style="edgeStyle=orthogonalEdgeStyle;rounded=0;orthogonalLoop=1;jettySize=auto;html=1;entryX=0;entryY=0.5;entryDx=0;entryDy=0;" edge="1" parent="wXiFjKmtYQNaFBfWxqvg-1" source="wXiFjKmtYQNaFBfWxqvg-311" target="wXiFjKmtYQNaFBfWxqvg-321">
          <mxGeometry relative="1" as="geometry" />
        </mxCell>
        <mxCell id="wXiFjKmtYQNaFBfWxqvg-323" value="No" style="edgeLabel;html=1;align=center;verticalAlign=middle;resizable=0;points=[];" vertex="1" connectable="0" parent="wXiFjKmtYQNaFBfWxqvg-322">
          <mxGeometry x="-0.116" y="2" relative="1" as="geometry">
            <mxPoint as="offset" />
          </mxGeometry>
        </mxCell>
        <mxCell id="wXiFjKmtYQNaFBfWxqvg-311" value="if any request item is still blank under Remove / Newly Added from Original Work Log? column&amp;nbsp;" style="rhombus;whiteSpace=wrap;html=1;align=center;verticalAlign=middle;" vertex="1" parent="wXiFjKmtYQNaFBfWxqvg-1">
          <mxGeometry x="550.9300000000001" y="3360" width="439.38" height="90" as="geometry" />
        </mxCell>
        <mxCell id="wXiFjKmtYQNaFBfWxqvg-317" value="DONE" style="strokeWidth=2;html=1;shape=mxgraph.flowchart.terminator;whiteSpace=wrap;fillColor=#008a00;strokeColor=#005700;fontColor=#ffffff;" vertex="1" parent="wXiFjKmtYQNaFBfWxqvg-1">
          <mxGeometry x="377.5" y="3380" width="100" height="60" as="geometry" />
        </mxCell>
        <mxCell id="wXiFjKmtYQNaFBfWxqvg-318" style="edgeStyle=orthogonalEdgeStyle;rounded=0;orthogonalLoop=1;jettySize=auto;html=1;entryX=0.983;entryY=0.39;entryDx=0;entryDy=0;entryPerimeter=0;" edge="1" parent="wXiFjKmtYQNaFBfWxqvg-1" source="wXiFjKmtYQNaFBfWxqvg-311" target="wXiFjKmtYQNaFBfWxqvg-317">
          <mxGeometry relative="1" as="geometry" />
        </mxCell>
        <mxCell id="wXiFjKmtYQNaFBfWxqvg-324" value="Yes" style="edgeLabel;html=1;align=center;verticalAlign=middle;resizable=0;points=[];" vertex="1" connectable="0" parent="wXiFjKmtYQNaFBfWxqvg-318">
          <mxGeometry x="-0.2083" relative="1" as="geometry">
            <mxPoint as="offset" />
          </mxGeometry>
        </mxCell>
        <mxCell id="wXiFjKmtYQNaFBfWxqvg-327" style="edgeStyle=orthogonalEdgeStyle;rounded=0;orthogonalLoop=1;jettySize=auto;html=1;" edge="1" parent="wXiFjKmtYQNaFBfWxqvg-1" source="wXiFjKmtYQNaFBfWxqvg-321" target="wXiFjKmtYQNaFBfWxqvg-326">
          <mxGeometry relative="1" as="geometry" />
        </mxCell>
        <mxCell id="wXiFjKmtYQNaFBfWxqvg-321" value="&lt;div&gt;Identify Request Items Removed from Original Work Log&lt;/div&gt;" style="rounded=1;whiteSpace=wrap;html=1;" vertex="1" parent="wXiFjKmtYQNaFBfWxqvg-1">
          <mxGeometry x="1097.5" y="3375" width="120" height="60" as="geometry" />
        </mxCell>
        <mxCell id="wXiFjKmtYQNaFBfWxqvg-331" style="edgeStyle=orthogonalEdgeStyle;rounded=0;orthogonalLoop=1;jettySize=auto;html=1;" edge="1" parent="wXiFjKmtYQNaFBfWxqvg-1" source="wXiFjKmtYQNaFBfWxqvg-326" target="wXiFjKmtYQNaFBfWxqvg-330">
          <mxGeometry relative="1" as="geometry" />
        </mxCell>
        <mxCell id="wXiFjKmtYQNaFBfWxqvg-334" value="Yes" style="edgeLabel;html=1;align=center;verticalAlign=middle;resizable=0;points=[];" vertex="1" connectable="0" parent="wXiFjKmtYQNaFBfWxqvg-331">
          <mxGeometry x="-0.1274" y="-3" relative="1" as="geometry">
            <mxPoint as="offset" />
          </mxGeometry>
        </mxCell>
        <mxCell id="wXiFjKmtYQNaFBfWxqvg-326" value="if any request item is NOT marked as &quot;Checked&quot; in backup work log" style="html=1;whiteSpace=wrap;aspect=fixed;shape=isoRectangle;" vertex="1" parent="wXiFjKmtYQNaFBfWxqvg-1">
          <mxGeometry x="1040.84" y="3480" width="233.33" height="140" as="geometry" />
        </mxCell>
        <mxCell id="wXiFjKmtYQNaFBfWxqvg-330" value="copy the request item from backup work log to the bottom row of current work log, and fill in &quot;Removed&quot; under Remove / Newly Added from Original Work Log? column" style="rounded=1;whiteSpace=wrap;html=1;" vertex="1" parent="wXiFjKmtYQNaFBfWxqvg-1">
          <mxGeometry x="757.5000000000002" y="3495" width="219.37" height="110" as="geometry" />
        </mxCell>
        <mxCell id="wXiFjKmtYQNaFBfWxqvg-335" value="DONE" style="strokeWidth=2;html=1;shape=mxgraph.flowchart.terminator;whiteSpace=wrap;fillColor=#008a00;strokeColor=#005700;fontColor=#ffffff;" vertex="1" parent="wXiFjKmtYQNaFBfWxqvg-1">
          <mxGeometry x="1371.25" y="3520" width="100" height="60" as="geometry" />
        </mxCell>
        <mxCell id="wXiFjKmtYQNaFBfWxqvg-336" style="edgeStyle=orthogonalEdgeStyle;rounded=0;orthogonalLoop=1;jettySize=auto;html=1;entryX=0;entryY=0.5;entryDx=0;entryDy=0;entryPerimeter=0;" edge="1" parent="wXiFjKmtYQNaFBfWxqvg-1" source="wXiFjKmtYQNaFBfWxqvg-326" target="wXiFjKmtYQNaFBfWxqvg-335">
          <mxGeometry relative="1" as="geometry" />
        </mxCell>
        <mxCell id="wXiFjKmtYQNaFBfWxqvg-337" value="No" style="edgeLabel;html=1;align=center;verticalAlign=middle;resizable=0;points=[];" vertex="1" connectable="0" parent="wXiFjKmtYQNaFBfWxqvg-336">
          <mxGeometry x="-0.123" y="1" relative="1" as="geometry">
            <mxPoint as="offset" />
          </mxGeometry>
        </mxCell>
      </root>
    </mxGraphModel>
  </diagram>
</mxfile>
